<mxfile host="65bd71144e">
    <diagram id="aHQNcl1xRUHJbRoJpH2b" name="Page-1">
        <mxGraphModel dx="1320" dy="1609" grid="1" gridSize="10" guides="1" tooltips="1" connect="1" arrows="1" fold="1" page="1" pageScale="1" pageWidth="827" pageHeight="1169" background="none" math="0" shadow="0">
            <root>
                <mxCell id="0"/>
                <mxCell id="1" parent="0"/>
                <mxCell id="4" value="" style="ellipse;whiteSpace=wrap;html=1;aspect=fixed;fillColor=#9211ff;strokeWidth=2;strokeColor=none;" parent="1" vertex="1">
                    <mxGeometry x="145.75" y="23.75" width="367.5" height="367.5" as="geometry"/>
                </mxCell>
                <mxCell id="5" value="&lt;font style=&quot;font-size: 20px;&quot;&gt;&lt;b&gt;Batch&lt;/b&gt;&lt;/font&gt;" style="text;strokeColor=none;align=center;fillColor=none;html=1;verticalAlign=middle;whiteSpace=wrap;rounded=0;strokeWidth=2;direction=east;flipH=1;flipV=1;glass=0;horizontal=1;arcSize=0;shadow=0;rotation=225;fontColor=#f2f2f3;" parent="1" vertex="1">
                    <mxGeometry x="140" y="290" width="160" height="60" as="geometry"/>
                </mxCell>
                <mxCell id="3" value="" style="ellipse;whiteSpace=wrap;html=1;aspect=fixed;fillColor=#f2f2f3;strokeColor=none;" parent="1" vertex="1">
                    <mxGeometry x="200" y="81" width="259" height="259" as="geometry"/>
                </mxCell>
                <mxCell id="6" value="&lt;font style=&quot;font-size: 20px;&quot;&gt;&lt;b&gt;Notebook&lt;/b&gt;&lt;/font&gt;" style="text;strokeColor=none;align=center;fillColor=none;html=1;verticalAlign=middle;whiteSpace=wrap;rounded=0;strokeWidth=2;direction=east;flipH=1;flipV=1;glass=0;horizontal=1;arcSize=0;shadow=0;rotation=315;fontColor=#f2f2f3;" parent="1" vertex="1">
                    <mxGeometry x="140" y="70" width="160" height="60" as="geometry"/>
                </mxCell>
                <mxCell id="7" value="&lt;font style=&quot;font-size: 20px;&quot;&gt;&lt;b&gt;API&lt;/b&gt;&lt;/font&gt;" style="text;strokeColor=none;align=center;fillColor=none;html=1;verticalAlign=middle;whiteSpace=wrap;rounded=0;strokeWidth=2;direction=east;flipH=1;flipV=1;glass=0;horizontal=1;arcSize=0;shadow=0;rotation=135;fontColor=#f2f2f3;" parent="1" vertex="1">
                    <mxGeometry x="360" y="290" width="160" height="60" as="geometry"/>
                </mxCell>
                <mxCell id="8" value="&lt;font style=&quot;font-size: 20px;&quot;&gt;&lt;b&gt;Lab&lt;/b&gt;&lt;/font&gt;" style="text;strokeColor=none;align=center;fillColor=none;html=1;verticalAlign=middle;whiteSpace=wrap;rounded=0;strokeWidth=2;direction=east;flipH=1;flipV=1;glass=0;horizontal=1;arcSize=0;shadow=0;rotation=45;fontColor=#f2f2f3;" parent="1" vertex="1">
                    <mxGeometry x="360" y="70" width="160" height="60" as="geometry"/>
                </mxCell>
                <mxCell id="11" value="" style="endArrow=none;html=1;strokeWidth=1;strokeColor=#000000;jumpSize=0;rounded=0;exitX=0;exitY=0;exitDx=0;exitDy=0;" parent="1" edge="1" source="4">
                    <mxGeometry width="50" height="50" relative="1" as="geometry">
                        <mxPoint x="170" y="80" as="sourcePoint"/>
                        <mxPoint x="80" as="targetPoint"/>
                        <Array as="points">
                            <mxPoint x="80" y="80"/>
                        </Array>
                    </mxGeometry>
                </mxCell>
                <mxCell id="13" value="&lt;font style=&quot;font-size: 10px;&quot;&gt;Jupyter VTL Kernel to define and execute VTL scripts&lt;/font&gt;" style="text;strokeColor=none;align=center;fillColor=none;html=1;verticalAlign=middle;whiteSpace=wrap;rounded=0;fontColor=#000000;" parent="1" vertex="1">
                    <mxGeometry x="-10" y="-31" width="180" height="30" as="geometry"/>
                </mxCell>
                <mxCell id="14" value="" style="endArrow=none;html=1;strokeWidth=1;strokeColor=#000000;jumpSize=0;rounded=0;exitX=0.5;exitY=0;exitDx=0;exitDy=0;fontColor=#FFFFFF;" parent="1" edge="1">
                    <mxGeometry width="50" height="50" relative="1" as="geometry">
                        <mxPoint x="461.21320343559637" y="79.78679656440363" as="sourcePoint"/>
                        <mxPoint x="560" y="31" as="targetPoint"/>
                        <Array as="points">
                            <mxPoint x="461" y="-7"/>
                            <mxPoint x="560" y="-7"/>
                        </Array>
                    </mxGeometry>
                </mxCell>
                <mxCell id="15" value="&lt;font style=&quot;font-size: 10px;&quot;&gt;Web appplication to define and execute VTL scripts&lt;/font&gt;" style="text;strokeColor=none;align=center;fillColor=none;html=1;verticalAlign=middle;whiteSpace=wrap;rounded=0;fontColor=#000000;" parent="1" vertex="1">
                    <mxGeometry x="490" y="30" width="140" height="30" as="geometry"/>
                </mxCell>
                <mxCell id="16" value="" style="endArrow=none;html=1;strokeWidth=1;strokeColor=#000000;jumpSize=0;rounded=0;exitX=0.5;exitY=0;exitDx=0;exitDy=0;" parent="1" source="5" edge="1">
                    <mxGeometry width="50" height="50" relative="1" as="geometry">
                        <mxPoint x="41.21320343559637" y="406.78679656440363" as="sourcePoint"/>
                        <mxPoint x="140" y="400" as="targetPoint"/>
                        <Array as="points">
                            <mxPoint x="90" y="340"/>
                            <mxPoint x="90" y="380"/>
                            <mxPoint x="140" y="380"/>
                        </Array>
                    </mxGeometry>
                </mxCell>
                <mxCell id="17" value="&lt;font style=&quot;font-size: 10px;&quot;&gt;Batch producing metrics about VTL script executions&lt;/font&gt;" style="text;strokeColor=none;align=center;fillColor=none;html=1;verticalAlign=middle;whiteSpace=wrap;rounded=0;fontColor=#000000;" parent="1" vertex="1">
                    <mxGeometry x="70" y="400" width="140" height="30" as="geometry"/>
                </mxCell>
                <mxCell id="18" value="" style="endArrow=none;html=1;strokeWidth=1;strokeColor=#000000;jumpSize=0;rounded=0;exitX=0.5;exitY=0;exitDx=0;exitDy=0;fontColor=#FFFFFF;" parent="1" source="7" edge="1">
                    <mxGeometry width="50" height="50" relative="1" as="geometry">
                        <mxPoint x="640" y="369" as="sourcePoint"/>
                        <mxPoint x="580" y="310" as="targetPoint"/>
                        <Array as="points">
                            <mxPoint x="580" y="340"/>
                        </Array>
                    </mxGeometry>
                </mxCell>
                <mxCell id="19" value="&lt;font style=&quot;font-size: 10px;&quot;&gt;API to interact with Trevas VTL engine&lt;/font&gt;" style="text;strokeColor=none;align=center;fillColor=none;html=1;verticalAlign=middle;whiteSpace=wrap;rounded=0;fontColor=#000000;" parent="1" vertex="1">
                    <mxGeometry x="520" y="280" width="120" height="30" as="geometry"/>
                </mxCell>
                <mxCell id="20" value="" style="shape=image;imageAspect=0;aspect=fixed;verticalLabelPosition=bottom;verticalAlign=top;fontColor=#f2f2f3;fillColor=#f2f2f3;image=data:image/png,iVBORw0KGgoAAAANSUhEUgAABJMAAAIZCAYAAAASiH4AAAAACXBIWXMAAC4jAAAuIwF4pT92AAAIfWlUWHRYTUw6Y29tLmFkb2JlLnhtcAAAAAAAPD94cGFja2V0IGJlZ2luPSLvu78iIGlkPSJXNU0wTXBDZWhpSHpyZVN6TlRjemtjOWQiPz4gPHg6eG1wbWV0YSB4bWxuczp4PSJhZG9iZTpuczptZXRhLyIgeDp4bXB0az0iQWRvYmUgWE1QIENvcmUgNy4xLWMwMDAgNzkuZGFiYWNiYiwgMjAyMS8wNC8xNC0wMDozOTo0NCAgICAgICAgIj4gPHJkZjpSREYgeG1sbnM6cmRmPSJodHRwOi8vd3d3LnczLm9yZy8xOTk5LzAyLzIyLXJkZi1zeW50YXgtbnMjIj4gPHJkZjpEZXNjcmlwdGlvbiByZGY6YWJvdXQ9IiIgeG1sbnM6eG1wPSJodHRwOi8vbnMuYWRvYmUuY29tL3hhcC8xLjAvIiB4bWxuczp4bXBNTT0iaHR0cDovL25zLmFkb2JlLmNvbS94YXAvMS4wL21tLyIgeG1sbnM6c3RFdnQ9Imh0dHA6Ly9ucy5hZG9iZS5jb20veGFwLzEuMC9zVHlwZS9SZXNvdXJjZUV2ZW50IyIgeG1sbnM6c3RSZWY9Imh0dHA6Ly9ucy5hZG9iZS5jb20veGFwLzEuMC9zVHlwZS9SZXNvdXJjZVJlZiMiIHhtbG5zOmRjPSJodHRwOi8vcHVybC5vcmcvZGMvZWxlbWVudHMvMS4xLyIgeG1sbnM6cGhvdG9zaG9wPSJodHRwOi8vbnMuYWRvYmUuY29tL3Bob3Rvc2hvcC8xLjAvIiB4bXA6Q3JlYXRvclRvb2w9IkFkb2JlIFBob3Rvc2hvcCAyMi41IChNYWNpbnRvc2gpIiB4bXA6Q3JlYXRlRGF0ZT0iMjAyMS0xMS0yNVQxMToyMDowOSswMTowMCIgeG1wOk1ldGFkYXRhRGF0ZT0iMjAyMS0xMS0yNVQxMToyMDowOSswMTowMCIgeG1wOk1vZGlmeURhdGU9IjIwMjEtMTEtMjVUMTE6MjA6MDkrMDE6MDAiIHhtcE1NOkluc3RhbmNlSUQ9InhtcC5paWQ6ZTkxOTRmOTAtMmI2My00NDJmLWIxODMtNzdlODVmZjUxNjhjIiB4bXBNTTpEb2N1bWVudElEPSJhZG9iZTpkb2NpZDpwaG90b3Nob3A6YjUwMWRkODQtZjVmNy1iZDQzLWExMWMtNGUxNTU3MTdiN2ZjIiB4bXBNTTpPcmlnaW5hbERvY3VtZW50SUQ9InhtcC5kaWQ6MTc3OTc2ZTItNWY5MS00N2M0LTk4NjQtN2EwZGViZGMzM2Y4IiBkYzpmb3JtYXQ9ImltYWdlL3BuZyIgcGhvdG9zaG9wOkNvbG9yTW9kZT0iMyIgcGhvdG9zaG9wOklDQ1Byb2ZpbGU9InNSR0IgSUVDNjE5NjYtMi4xIj4gPHhtcE1NOkhpc3Rvcnk+IDxyZGY6U2VxPiA8cmRmOmxpIHN0RXZ0OmFjdGlvbj0iY3JlYXRlZCIgc3RFdnQ6aW5zdGFuY2VJRD0ieG1wLmlpZDoxNzc5NzZlMi01ZjkxLTQ3YzQtOTg2NC03YTBkZWJkYzMzZjgiIHN0RXZ0OndoZW49IjIwMjEtMTEtMjVUMTE6MjA6MDkrMDE6MDAiIHN0RXZ0OnNvZnR3YXJlQWdlbnQ9IkFkb2JlIFBob3Rvc2hvcCAyMi41IChNYWNpbnRvc2gpIi8+IDxyZGY6bGkgc3RFdnQ6YWN0aW9uPSJzYXZlZCIgc3RFdnQ6aW5zdGFuY2VJRD0ieG1wLmlpZDplOTE5NGY5MC0yYjYzLTQ0MmYtYjE4My03N2U4NWZmNTE2OGMiIHN0RXZ0OndoZW49IjIwMjEtMTEtMjVUMTE6MjA6MDkrMDE6MDAiIHN0RXZ0OnNvZnR3YXJlQWdlbnQ9IkFkb2JlIFBob3Rvc2hvcCAyMi41IChNYWNpbnRvc2gpIiBzdEV2dDpjaGFuZ2VkPSIvIi8+IDwvcmRmOlNlcT4gPC94bXBNTTpIaXN0b3J5PiA8eG1wTU06SW5ncmVkaWVudHM+IDxyZGY6QmFnPiA8cmRmOmxpIHN0UmVmOmxpbmtGb3JtPSJSZWZlcmVuY2VTdHJlYW0iIHN0UmVmOmZpbGVQYXRoPSJjbG91ZC1hc3NldDovL2NjLWFwaS1zdG9yYWdlLmFkb2JlLmlvL2Fzc2V0cy9hZG9iZS1saWJyYXJpZXMvMzU0ZDk1ZGItMjU1Yi00NGI5LWE5NzgtMDFiNTRiYTAzNGRjO25vZGU9YTBmN2FjNzUtZDk4Yi00ZDM0LTg3OGUtMWI4OGE3MWZmN2EyIiBzdFJlZjpEb2N1bWVudElEPSJ1dWlkOmU4ZjhhNzJlLTkyYzgtMzE0MC1iNDRmLTk1NzI0Y2U0OWJmMiIvPiA8cmRmOmxpIHN0UmVmOmxpbmtGb3JtPSJSZWZlcmVuY2VTdHJlYW0iIHN0UmVmOmZpbGVQYXRoPSJjbG91ZC1hc3NldDovL2NjLWFwaS1zdG9yYWdlLmFkb2JlLmlvL2Fzc2V0cy9hZG9iZS1saWJyYXJpZXMvMzU0ZDk1ZGItMjU1Yi00NGI5LWE5NzgtMDFiNTRiYTAzNGRjO25vZGU9ZWE2NGI0ZDctOTJmZS00ZWJkLWEwNjMtMmNlMjk0ZmFjOGIyIiBzdFJlZjpEb2N1bWVudElEPSJ1dWlkOjE2YzhlYmU3LTY4ODctNjk0OS1iYWYyLTU4YWVlMWE5NTlhMCIvPiA8L3JkZjpCYWc+IDwveG1wTU06SW5ncmVkaWVudHM+IDwvcmRmOkRlc2NyaXB0aW9uPiA8L3JkZjpSREY+IDwveDp4bXBtZXRhPiA8P3hwYWNrZXQgZW5kPSJyIj8+uR4JqAAAcF5JREFUeJzt3XeYpFWZ9/HvqYFhyDQ5RyUoAosKZhBEEQHFgCgKogRBbQNidtd1Tbuur9hKBgUlCShRVECCooKAgJIk5wxFDsNMnfeP06wIXTNPz1Q9d4Xv57rqArp76r5PVTHd9evz3CflnJEkSZIkSZKqaEQ3IEmSJEmSpP5hmCRJkiRJkqTKDJMkSZIkSZJUmWGSJEmSJEmSKjNMkiRJkiRJUmWGSZIkSZIkSarMMEmSJEmSJEmVGSZJkiRJkiSpMsMkSZIkSZIkVWaYJEmSJEmSpMoMkyRJkiRJklSZYZIkSZIkSZIqM0ySJEmSJElSZYZJkiRJkiRJqswwSZIkSZIkSZUZJkmSJEmSJKkywyRJkiRJkiRVZpgkSZIkSZKkygyTJEmSJEmSVJlhkiRJkiRJkiozTJIkSZIkSVJlhkmSJEmSJEmqzDBJkiRJkiRJlRkmSZIkSZIkqTLDJEmSJEmSJFVmmCRJkiRJkqTKDJMkSZIkSZJUmWGSJEmSJEmSKjNMkiRJkiRJUmWGSZIkSZIkSarMMEmSJEmSJEmVGSZJkiRJkiSpMsMkSZIkSZIkVWaYJEmSJEmSpMoMkyRJkiRJklSZYZIkSZIkSZIqM0ySJEmSJElSZYZJkiRJkiRJqswwSZIkSZIkSZUZJkmSJEmSJKkywyRJkiRJkiRVZpgkSZIkSZKkygyTJEmSJEmSVJlhkiRJkiRJkiozTJIkSZIkSVJlhkmSJEmSJEmqzDBJkiRJkiRJlRkmSZIkSZIkqTLDJEmSJEmSJFVmmCRJkiRJkqTKDJMkSZIkSZJUmWGSJEmSJEmSKjNMkiRJkiRJUmWGSZIkSZIkSarMMEmSJEmSJEmVGSZJkiRJkiSpMsMkSZIkSZIkVWaYJEmSJEmSpMoMkyRJkiRJklSZYZIkSZIkSZIqM0ySJEmSJElSZYZJkiRJkiRJqswwSZIkSZIkSZUZJkmSJEmSJKkywyRJkiRJkiRVZpgkSZIkSZKkygyTJEmSJEmSVJlhkiRJkiRJkiozTJIkSZIkSVJlhkmSJEmSJEmqzDBJkiRJkiRJlRkmSZIkSZIkqTLDJEmSJEmSJFVmmCRJkiRJkqTKDJMkSZIkSZJUmWGSJEmSJEmSKjNMkiRJkiRJUmWGSZIkSZIkSarMMEmSJEmSJEmVGSZJkiRJkiSpMsMkSZIkSZIkVWaYJEmSJEmSpMoMkyRJkiRJklSZYZIkSZIkSZIqM0ySJEmSJElSZYZJkiRJkiRJqmye6Ab6SUopugVJkiRJzzE2kj8FHDnaTPdH9yKp+3LO0S0IdyZJkiRJ6lNjI3ka8EVgz+heJGmYGCZJkiRJ6lc7AUsDo2Mjef7oZiRpWBgmSZIkSeo7YyO5Aew9/p9LAjsHtiNJQyV5vWF1zkySJEmSesPYSH4HcOJzPnQ9sNZoM7ViOpI6an5gkfF/PtcM4DFgJvBo3U31AjOM3uAAbkmSJEn9aJ/n/feLgO2AXwT0Ik3GYsDawIuBNYBVgeWAFSiXbS4KTK1wPxm4D7gHuGv8nzcBVwPXAP8Anuxo59I4dyZNgjuTJEmSpHhjI/m1wPkTfOrC0WZ6Vd39SLOwGLAx8Grg5cB6wMo11c7AjcAFwB+BPwFXUHY19S0zjN5gmDQJhkmSJElSvLGRfCLwjjaffv1oM00UNEl1WBDYBHjT+G1doJfeSD4CnA2cApxO2c3UV8wweoNh0iQYJkmSJEmxxkbyWpTLeNr9cH7aaDNtU2NL0tLANpSA803AtNBuqsvAX4DjgKPok2DJDKM3GCZNQkqpAWwb3Yfm2v1MvC16EGxMud661z07OBDgqfEb4x+bMf7fjwBP1N+aOuh1lNN1NNhuBf4a3YSk4TE2kg8GdpvFl2TgpaPNdHVNLWk4LQi8HfgAsAX9P494BvBr4HDgNGB6aDezYIbRGwyTJiGlNA0HmA2C84BNo5vokpMo39QGxUxKqPQI8NBz/r1JGTJ4H3Dn+O1W4DZ6+BvfEDqXss1bg+0I4EOdvtPpj+UFgEan77eip6YulGYE1VYPC35dPjF1IU8pGxvJywC3APPN5ksPG22mXWtoScPnpcBHgQ9SBmUPojuBfYGDgYdjW3khM4ze0O/pqaTBNgUYGb+tUvHP3AVcN3579hSLyylhk6Q+kVvMIO4ygamU39BK/+fpR/KU3Ar72TnPt4hB0rhPMPsgCeCDYyP5q6PNdFe3G9JQSMCWwGeBzYJ7qcPywP8AXwUOAv4f5Wds6f8YJkkaNMuN397wvI83KaHSxcCfKSda9MV14dIwyi2eAeYnZmjp1Kceyk9NW8w37/qn3GI+4nYlPR1Ut6eMjeSFgL0qfvlUSvD0pe51pCHQALYHvkwZpD1sFqYEaHsC36cETI+GdqSeEfUNUZLqNkK5vPGzwC+Au4HrgcOA9wCLh3Um6QWmLZZybjEjt2gE3fpleKpq8OSDOeUW8wW+Hr2Eu9iF8v28qr3GAyhpTrydMhPwGIYzSHquBYGvADcAH8dNKcIXgaThtsb47cNAi7Jr6UTgeMo3S0mBcounKbuTIkzDQwA0bnxX0pSg8s8ssGSaGVS7Z4yN5HmAvSf5xxalDOr+fuc70gD7N8prxrmPL7QU8EPKz867AZfEtqNI7kySpKIBbAR8m7Jj6VLgi5RrxiUFWGDJNIMWLVo0Am7zPHFvrjKXRcOgxQJBr8MGrf878XTYvYfq8xOf69PjQZQ0O4tRBk5fgkHS7PwbcCHwPWCB4F4UxDBJkia2AfAtyuDuU4F34G5OqXY582TONIJuC0avX/EevyfPmzNTg16DLLB0cl5S8dk5/HMrAe/tZCMaSO+lHNyyGzGz+vrRFOAzwN+Alwf3ogCGSZI0a1OArSmXv10PfBJw/oJUk9ziqdyCqLlJj93ljoZhl1ssGDgr6cno9feCsZG8ObDhXNzF5zrViwbO4sDPgWOBZYJ76VdrAH8CPoVB3FAxTJKk6lYB9gVuo+xaWiyyGWkYLLRcyuO7k1LQzd1JQ+zRO3PKmQUCX3/O7Sr2mcs/v97YSN6iI51okGwG/J1yWpvmzlTKnKmTmNyQfPUxwyRJmrzFKPOUbh7/p9eKS93U4onAeTULPXp79jetw6rFgrSYEvTae3rh5R28PTaS1wPe0oG7cneSnpUoJ5OdibMxO21byiyltaMbUfcZJknSnFuUskPpBuB9wb1IA2vhFdMzucX0oMuM5sktA+NhlVssHHiJ22PR6+8Rc7sr6VlvGhvJG3TovtS/FgFOAf4L3wt3y4uBC4BNg/tQl/k/kCTNvWWBo4FfM2cnzUiajdziscA39YtEr1/1e/jmPC23mBb0mpu5yMpp6E9xGxvJnR6e3algSv1pZeB8yixMddeiwBnADtGNqHsMkySpc7YErgT2im5EGjS5xRO5RQ56Y7/AQzfmeaMfA9Urt1jEXUnhPgl08v+9946N5JU7eH/qH+tRLr96WXQjQ2Re4Chg9+hG1B2eUCJJnbUgsB9lqONuQDO2HWkwLLZ6ys3r86OUk3ciLArcH1RbNWten5/dkRYxLysDjwbU7SljI3kxYI8O3+0U4NPjNw2PjSm7ZNxlWr8GcBDl/70DgntRh7kzSZK6413AX4GNohuRBkXOPJwzjaDbYg9e5yDuYZEzi+bMlKDX2mMjL3LwNmU3w0JduN/dxoMqDYfNgHMwSIq2P7BndBPqLMMkSeqeVYE/AB8M7kMaCIu/OM3ILR4Puuxo3txi4ejHQPXILUYCL3F7KHr90cZG8lTgU126+wXxcvRhsTFwMjB/dCMCys7990c3oc4xTJKk7poK/BT4BjGXS0iDpcVDQce0N2iFXWKnGj1wdV6AFvMHvcaeXmItB28DOwLLdfH+PzE2kufr4v0r3vqUS9u6sbtNcyYBhwNvCe5DHWKYJEn1+DLwY8o145Lm0BLrpMdy5pmcSQG3he6/yjeggy5nFg96faWcnbM3NpIT8Nkul1kWdw0PshWA0/HStl40L3AcZSC6+pxhkiTV50PAMZTdSpLmUG7RDLwEyd1JA+y+K/KUwEvccm7xcPRj0AO2Al5SQ529x0ay74UGz0LAacDy0Y2orUWAU4g7UEMd4mluklSv9wDTgO0AB6xKcyC3eJDyRiHi0tEl7/1bvmfp9VIroLa6bDwsjNpB+oCvKwA+V1OdtYG3AafWVE/1+DGwQXQTmq1VKL9g3Qp/Hu5bpvGSVL9tgCNwhpI0R5ZeL80MnJ00Ly0Wi34M1CUtlg6cyXV/9PKjjY3kVwJvqLHk52uspe77JOWXduoPbwb+M7oJzTl3JklSjB2BO6nvN7DSQMnljfdSQeWXBh4Mqq0uueeveeHcCjv16ZFlNkxPB9XuJXV/T3zt2Eh+1WgzXVBzXXXeK4DvRjfRIU3g5vHbI8CjwJPA0/B/p4ouAiwDLEnZqbti3U12yJeBCyiXJqrPGCZJUpx9gFuBH0U3IvWbZTZMj999SX4KWCCg/CJ3X5LnX/bl6cmA2uqSnFmauF379wXV7RljI3kN4J0BpfcB3hVQV50zDTiSMty539wF/B64BLgQuBzmaHbagsCLgHWBVwMbAS+nP65EOozS99D/PdhvDJMkKdYPgJuAX0U3IvWb3OJeYPWg8stQfmusAXDXRXme3GJJYi4/ng48FFC313yGmDe+242N5BePNtN1AbXVGd8G1opuYhIupOzEOY0SHuUO3Ofj4/d1OXDU+MdGgLdQxiu8g5hfvlSxNHAQMWGy5kI/JJWSNMgalN+mrRbdiNRvcosHxk/Aijh5a+k7L/QkqEGRWyyTW0wJei3dt9wrUyfeTPatsZG8JLBLUPkE7B1UW3Pv5cBodBMV3AX8N7AO8CrgG8BldCZIaqcJHEsZrbAs8BHKDqhetB2wU3QTmhx3Jk1OCzgvuokB9ArK1sy6PFVjrUF3IbDDbL4mAYs+72OLUbYkT3vOvy8GLEG59nup8X9fClgJmNqhfnvVYsAJwGso18NrzjxM+cFM9bomqvDyG6eZd/w530fMEdBTKX9f3RtQWx2WWyxHzC9ZM3BPQN1e8zEIm1cFsPPYSP7qaDN5mU1/aQD709sbJK6m7Jw6BpgR2MejlJPufgxsDnwJ2Cywn4n8EDiTErypDxgmTc50YNPoJgbQZcD6Nda7u8Zag+4pun+ZRwKWA1YGVqUcJboO5drqlxD7w2cnbQjsC+wZ3Ec/uwz/jh4+mbuBFYKqL4dhUt+74095MXLY95IHVnhNmh5UuyeMjeT5gU8EtzGNsrvlq8F9aHI+RJkN1IuuogyXPpnu7j6aE78bv21FGVr+kth2/s8iwP9SdlKpD/RyiitJUL4B30k56eFYyhbhD1F2tC0MrEkZnPlNyjfGx0K67IyPUo5JlVTRCq9JT+QWjwRdnrTY7efnXp1BoYpyi+WDXj+N3PI38JTL25aIbgLYc2wk17lTXnNnfnrzWPmHgE9SflF+Er0XJD3X6cAGlBC1V0Lt9wObRDehatyZJKmfzQSuG7/9cvxjUyi7fDYHtgDeQH/9XXcosB4OY5UqG39DvnhQ+RUofwepD932+zw1t1iamMHbT6z0hvRQQN2eMTaSG5TB271gCUqw5Qmr/eFjwIrRTTzP0ZQg6f7oRibhGcr8ppMpv7TthV1K+1FCrsjLAlWBO5MkDZqZwEXAdyiB0pLA9pSZRP0wL2slyuVukirKLe7LLWYE7SxZ/tZzHcTdr8Z3JUUN3r4zev094J3AGtFNPMdnxkZyP/0CaljND3w+uonneJjys+aO9FeQ9Fx/BzamzHaKNg+9FxRqAv7wI2nQPQwcD7yHMtB7F+D80I5mb2fKjipJFay8acpk7iTTCLhNJbNM9GOgybv1nJzIrBj0uslkL3ED9olu4HlWw+PJ+8GHKL8s7AV/A/6N8rNmv3uMcpnZ14LqPwF8kbJD/+agHjQJhkmShsljwOHA6ykDvA+jd09P+wH+HS1VllvckVukoB0mK0evX5OXWyyeWywY9Jq5Z+U3pqG+hGNsJL+e3hye/LnoBjRLDWDv6CbGnUo5ifem6EY67D+Bj1BOMq/LCcDalCsLemV+k2bDNyqShtWVwK6U30L+gN67BG4DSn+SKlhl8/RUbnF/UDCw+M1n5oWjHwNNTm6xStDrpZFb3Ba9/h7QS5cpPdfLx0byG6ObUFtvpjcujTwU2A54PLqRLvkxsBPdD5T+QXlO3wP+vdhvDJMkDbu7gE8BqwNHxLbyAt8AFopuQuoXucVtgeGAu5P6yE2/zdNyi2WDXiuPrLpFeiT6MYg0NpLXAd4W3ccs9Nrld/qn3aIbAA4CdqfM6RxkR1HGQ3TDcy9pO7NLNdRlhkmSVNxFuQb/1cDlsa38n6WAj0c3IfWL8Z1JTwYFBCvd+Os8JfoxUDW5xco5bvD2LdHr7wGfjW5gNt46NpLXjW5CL7AUsG1wD8dRTpLLwX3U5afAlzt8n17SNiAMkyTpX10AvBL4Or3xG6fP4u4kqZLV35pybnFrUEAwX26xQvRjoNm74Vc55RarBr1OZuQhP8VtbCQvB3wwuo8K3J3Ue95FOekryoWUS7964efDOn2Lctnb3PKStgFjmCRJL/QM8B/AG4G7g3tZAncnSdVlbh0/KSsF3FaNXr4qyCxNZoGg18ita7wt1TnUthd9Epg3uokK3jc2kg2Ie0vkSXv3UWYk9erBLd22F3DRHP5ZL2kbUIZJktTeHyjHvf4luI/PAFODe5D6whpbp+m5xZ1Bu06WvP6UvEj0Y6BZyy1WD3p9NHJruI+7HhvJCwEfje6jonkpMxXVG0Yov+SLshNlJMKwehp4N/DAJP+cl7QNMMMkSZq1uyk/vJwa2MNSwPaB9aW+kjM35kwj6LZ69PrV3nUn5wVyZvmg18a9L9o2DerJT1XtASwa3cQk7D42kvup30G2GXGXuB0K/Caodi+5FfhIxa/1krYhYJgkSbP3BGVr88mBPXipm1TRi9+eHswtHgnaebLatSc6iLtX5Rar5bjB2zdGrz/S2Eiel3KJWz9ZhHJql+JtHlT3QeDzQbV70cnMen7Sk3hJ29AwTJKkamZSdgf9Kqj+xsDLg2pLfSe3uCEoMJgvt1g5ev16oX/8IqfcYo2g18VTuTXUl8gAvBdYKbqJOfDJsZHspebxNguq+x+UQEn/9Ckm3m10IrAOXtI2NAyTJKm66ZQfhi8Lqr9LUF2p/7S4hRYzadEIuL04evmaQIsVaLFQ0GvihrXelYblKPEXGBvJif49HW0F4H3RTQy5EWCtgLq3AQcH1O11j/KvO+avB95KGZB+S0hHCmGYJEmT8ziwLXB/QO3tAS+fkSpY6z1pRm5xc9AulKWv+XleLPox0L/KLdYMej2QW9wQvf5gW1Aue+lXnx0PxBTjFUF1f4g7bNo5BTgK+AqwLs6UGkpRQ8wkqZ/dBnyY8o20TktRfiD3G7ZUQW5xLWXLfYS1gAuDaut5rj4mL5hbrBhU/pZ13peeCqrdKz4X3cBcWpey8+L06EaGVMRl/k9TBm+rvQ9EN6BY7kySpDlzKjFbn3cIqCn1pXXelx7OLe4N2o3yoquOyv7SrkcE7kpqjIeaQ2tsJP8bccOTO+mz0Q0MsYhfCpwCNAPqSn3DMEmS5twXgPtqrvk2/Ltbqi7zDzIp4DaVzOrRyxdcdWRukFkz6HXw0Et2TPdEPwbB+nVW0vO9cWwkR11uNexeFFDzhICaUl/xDYkkzbkm8KWaay4JbFhzTalv5cwtOfN0zjQCbmtHr1+QMyvnzEJBr4F/RK8/0thIXoUy729QDEow1m/qPtRgJnBGzTWlvmOYJElz53CofbDqVjXXk/rWSz+YWrnFtUGXNy1zxRF5iejHYNjlFi8Jev5n5hbXR68/2KcZrIMj3jU2kleLbmLIzEeZGVmnvwEP1VxT6juGSZI0d2YA36i55ltqrif1tdzimtwiBQUKL4le/zD7+0/yIrnFSkHP/Q3r7pyeiX4MooyN5BFg1+g+OmwKsHd0E0NmyYCaFwTUlPqOYZIkzb2jgDpnYryC8ps6SRW8bJf0WG5xW1CgsNbfDsvzRj8Gwyq3WCfoeW/kFldFrz/YXsCC0U10wS5jI+44rNGyATWvDqgp9R3DJEmae88AP66x3lRggxrrSX0vt7gyKFCYL7dqn/ch4PJD8pQcd4nb3et9JD0Q/RhEGRvJ8wGfiO6jSxagBGWqx2IBNa8LqCn1HcMkSeqMw2qu96qa60l9bXxn0qNBwcK60esfRrnF6rnFQkHP+ZXR6w+2E7BMdBNd9ImxkTx/dBNDYuGAmncH1JT6jmGSJHXGDcDlNdbbqMZaUt/bYI+UaXElLRoBt+UuOyDXPUBWLV4W9Hw/Tav2gxl6xthIblD/XKG6d5IsBexcc03V56HoBqR+YJgkSZ1zYo21XlpjLWkg5MxVOZODjoh/WfT6h8ml++fFcmaVoOf6yg32TDOjH4NA2wBr1VzzM8C5ddccD87UXYsG1HwqoKbUd/wLUJI654waa60JpBrrSX3v3/ZKT+bMdTmTAm4v+et+DuKuS86sF/Q8kzN/j15/sH1qrncdcDqwb811XwxsV3PNYRQRzE4NqCn1HcMkSeqcS4Ana6o1P7ByTbWkgZFbXB40Q2dabrFO9PqHwSU/zFNyi5cFPc83b/ix9Ej0YxBlbCS/Bnht3WVHm6kFnAq1X1742ZrrDaPHAmp6Yq5UgWGSJHXOdODiGuvVfRmB1Pde/ol0Jy3uD5ql82/R6x8KLdaixYJBz3Gds/N6Ud3hysPA4QDjgdJYzfVfNTaSX1dzTXWfM+6kCgyTJKmzLqux1nI11pIGRm5xWdCuleUu/n5eNnr9gy632CDo+X0kt7gpev1RxkbymsA7ai57yGgzPXfnyk+AuneGfa7mesPmwYCaqwfUlPqOYZIkddY1NdbyTak0B3KLq3KLGUGBw4bR6x9kF30vL5FbrBr03F72ik+nHP0YBNqbemf5zQR+9NwPjDbTo8BhNfYAsPXYSF675prDJCJM8pJkqQLDJEnqrKtrrGWYJM2BV+6dpucWVwQFDuv+5bvZ4a5dkltsGPS85tzib9HrjzI2kpcGdqq57ImjzXTLRO0ArRr7SDg7qZsiwqRXBtSU+o5hkiR11p011jJMkuZQbnFJUOgwLbdYN3r9g+jC/87z5Bb/FvS8Xr3RPumJ6Mcg0CeAaTXX/P5EHxxtppuBk2rtBD44NuIlrF1yN/BMzTVfi0O4pdkyTJKkzqozTJq/xlrSQNn48+m+nLktZxoBN3/r3QU589KcWSDoOb0kev1RxkbygsBeNZe9aLSZ/jSLz08YNHXRVGC05prDogXcVnPNBYBNa64p9R3DJEnqrEeBp2qqZZgkzYXc4uKgXSwr/Plbefno9Q+a3OIVQc/nva/6Qqr7zW4v+TCweM01ZxkWjTbT+VB7wLfn2EheqOaaw+LGgJrvC6gp9RXDJEnqvLrCJLdgS3OjxVW0eDLoCPmNopc/SP78jbw0LVYLei7/Er3+KGMjeR7gMzWXvQM4ocLX7dvlPp5vMWC3mmsOiysDar4HGAmoK/UNwyRJ6ryHa6pT93wKaaC8+itpZs5cnDMp4Lb+n/4rGwh3SM5sFPQ8Ts95eAdvA+8CVq255n6jzVRlhs5x1HvpOcCnxgM2dVbE/2MLAHsE1JX6hmGSJPWvunZASQMrt7got0hBg7jXj17/IPjjf+Z5c4uXB13idulrvpqmRz8Ggfapud6TwEFVvnC0maYD+3e3nRdYGXhvzTWHQdRMss8CCwfVlnqeYZIkSRpar/2P9FBucW1QEPGq6PUPgtxi/dxigaDncJgvcdsceHnNZX862kyTOSr+IOr/xctna643DK4AHguouwTwpYC6Ul8wTJKk/tWKbkAaCC0uCJq1s9L5X80rRS+/77V4VdDzd9Pr/jPdE738QHsH1Nx3Ml882kz3Az/rTittbTA2kreoueagmwnM6vS+bvoMsG5QbamnGSZJUuctUlOdh2qqIw203OIfucVDQTtbXhO9/n72hy/n5XKL1YKeuz9Hrz/K2Eh+GfDWmsv+ZrSZrpmDP/eDjncye3Vf/jcMfhtUdypwBB56Ir2AYZIkdd78NdV5qKY60kB7/TdTzpkLcqYRcNvw91/KDtOfQznz2qDn7fGcuSJ6/YEiwpJ95+QPjTbTlcAZnW1ltrYYG8nOROusXwfW3pCYUFLqaYZJktRZC1LfKWvNmupIAy+3uDC3yAG7W6blFq+IXn8/Ou8LeWpusVHQrqQL3vCtNDP6MYgwNpJXBHaouezVzF0gtG+H+pgMdyd11tXAtYH19wB2Cawv9RzDJEnqrOVqrHVvjbWkgbbJd9JjucXlQcHE66LX349yOcFt/oDni9wKm9/SCz4JzFtzzX1HmynPxZ//DfCPTjVT0Q5jI3nlmmsOuuOC6x8EbBXcg9QzDJMkqbOWrbHWbTXWkgZebvGHoDBppXM+m1eNXn+/yS1eH/R8Xbnp/6SHotcfYWwkL0rZoVGnB5nLIdrjQVTdlylNAT5Vc81Bd3Rw/XmBE4DXB/ch9QTDJEnqrBfXWOvOGmtJA++N/5tuJHMnmRRwc3fSJJyzd16JzKpBz9UfotcfaHdg4ZprHjjaTE924H6OoP7Lw3cfG8mL1VxzkF0NnB/cw/yUYeB1D6CXeo5hkiR11po11rqhxlrSUAjcnbTR2Z92EHdVucUmQc/TA7nFnJwo1vfGRvJU6t9p8wywfyfuaLSZngAO7sR9TcKCwJ411xx0B0Q3QAmUTgZ2jG5EimSYJEmd9dKa6jwJ3F5TLWlo5BZ/yS2mB4QU03KLV0Wvvx/87pN5Wm6xcVCYdN5m35+r2T397P3A8jXXPH60me7o4P39CJjRwfurYnQ8iFNnHE9vXOY/L3Ak8N+USxqloWOYJEmdtVFNda4DhvUNjdQ1m/8gPZXLyW4RQcUm0evvB7mc4BYxeHtGbvHn6PVHGBvJCfhsQOnvd/LORpvpdsrMmzotC+xUc81B9gzwvegmnuNzwK+BpaIbkepmmCRJnbMqsExNtS6vqY40dHLm3JxpBNxWOfPjebXo9fe6nNks6Pm55E0/TI9Hrz/IW6lv5+2z/jjaTBd34X737cJ9zs7e44GcOuNg4O7oJp5jC+AKYOvoRqQ6GSZJUufUuavg0hprSUNlix+lO2hxPS0aAbfNotffy87cK69Oi1WDnpuzo9cfaJ+Amvt2405Hm+lCqH2H2doYNHTSk8DXopt4nqWBU4FDgJHgXqRaGCZJUudsVWOtbvy2VtK43OKcoEvdXn3GR/MC0evvVbnFZkHPyy1b7J9uil5/hLGR/Epg05rL3gKc2MX737eL993O5wJqDrLDgCujm5jArsA1OJxbQ8AwSZI6Y17gzTXVega4pKZa0lDKLS7KLR4LCC2m5Ravi15/L/rt7nn+3OI1QWHS76LXHyhiV9IPR5tpZhfv/5fArV28/4m8bmwkO2S/c2YAH4tuoo2lKcO5fw+8IrgXqWsMkySpM94KLFZTrb8CT9RUSxpKbzk4zcgtfh8UXGwevf5elFu8bjxsq/v5eDK3uDB6/RHGRvLqwDtrLvsYcGg3C4w20wzKyW51ixhiPsjOA46IbmIWXg9cRAmWXhTci9RxhkmS1Bl1ntRybo21pOGV+R0ZyKSabyv/5iN5zejl95zMFgHPRSLzhy0PTU9HLz/IZ6j/2POfjDbTwzXUORSoe6D6O8dG8otrrjnoPgXcGd3EbOxIufTtcAyVNEAMkyRp7i0HbFtjvTNqrCUNrS0PS/flFpcH7U56U/T6e8mvd8lr5harBD0XZ0avP8LYSF4S+HDNZTMwVkeh0WZqUt7c1ylRAjp1zkPALpTXTi+bAuxMCZWOBjYI7UbqAMMkSZp7o5SZSXV4DDi/plrS0MstzgwKMF57+s55wej194rcYoug5+GKt/4k3RW9/iB7AvPXXPO00Wa6vsZ6Y9QfQnxobCQvVXPNQXcG8J3oJiqaAryPcirv74B3AfOEdiTNIcMkSZo7i1F+4K7LGcD0GutJQy1nLs2Z+3OmUfNtWs5sEr3+XvCrnfKCOfO6gOegkfNw7gQdG8nzU35RUrfv11lstJmuBU6vsyYwDfhEzTWHwVeBs6ObmKTNgBMow+C/BqwQ2o00SYZJkjR3vgQsWmO942usJQ29t/005cDdSW+JXn8vyC02zTGDt5u5xcXR6w+yM7BkzTX/NtpM59RcE2DfgJp7jY3kBQLqDrKZwHuAm6IbmQPLAf8B3EI5afCt+D5dfcAXqSTNuVWp9ze3TwGn1VhPEpBb/C63aAWEGaue+v68dvT6o+UWWwWFeWdufWRXj6fvSWMjuQHsHVC61l1JzxptprOAK2ouuwT1z6MaBg8CW43/sx9NAbaj7Ja7Bfg6sEpoR9IsGCZJ0pxJwMHAfDXWPJkyM0lSjbY5Oj2cW/w5KNDYMnr9kU7ZIb80t1g54HHPeUgHb1PezNZ94tS9wDE113yufQNqfmZsJNd9Ut4wuIZyKMqT0Y3MpRUpl+7dRBlxsD31/swpzZbDviRpzuwGbFFzzZ/UXK/fvIiYNwSd8hfKCS/qRS1+DbwxoPImp2yfD9n2uFT3Eea9oRV2uceftj0u9evuhrm1T0DNA0ab6emAus86Cvg2UOdg7NUow5ePq7HmsPgjsDXwG+o7IKVbEuXnzS2AB4CfAYdR/2466QUMkyRp8l5G/dvxb4eh/S15VSsAn4xuYi4cgWFSz9r2uHTlye/Ot1Iub63TNOBNlJ2JQ+Xkd+eFc4s3EBMm1T2UuSeMjeTXARvXXHY6sH/NNf/FaDM9NTaSD6TsBKnTPhgmdcvZwLspj++g7OhZAvjU+O1C4FDg58CjcS1pmHmZmyRNzmKU4Yh1D87cH2jVXFPSc+QWpwdd6rZ19Noj5BZvzi3mC3i8b88t/ha9/iCfD6h59Ggz3RtQ9/n2B56pueYrxkZyxI7HYXEKZYZSv1/yNpGNgUOAuyg7lV4T246GkWGSJFW3AGUAdt2zJJ6izGeSFChnzsqZp3Im1Xxb5cTt8rrR66/TidvllDNvC3isU8786h2/TDn6Majb2EheB3hbQOmQwdvPN9pMdxMzt+mzATWHydnA5sD90Y10yYKUYe5/BK6iDM+v+yRGDSnDJEmqZipwLPDagNpHUK6TlxRouxPTk2TOJtMIuA3X7qTMemRWDnicnyEP7SXFe1Pms9TpnNFm6qVdYPsG1NxqbGS4wuIAf6b8/HZDdCNdtg7wv8AdlNlKET+zaogYJknS7C0A/ArYJqD2TOB/AupKmkBucWrQpW5v/OW2eeHo9dclt9gm6HE+e7uThm/Y+dhIXg74YEDpfQNqtjXaTJcC5wWU3jug5rC5FtgIOCe6kRpMBT4AnA9cDuwJDM33D9XHMEmSZm054FzKANwIRwI3BtWW9DzvPCXdmFtcFRByzJdbvCV6/XX4xdZ5JLfYJChMGrpB5+M+QXkDWqcbKJeO95p9A2ruODaSVwioO2weBN4M/CC6kRqtR5kHdicwBqwe244GiWGSJLX3KuAi4JVB9Z8B/jOotqQ2couTg4KOt0evvQ65xVtzzODtq991Wro+ev11GxvJCwF7BZT+wWgz9eLBEqcAN9Vcc176+zTSfjKDchra9gzXKWgLUULj64DjKT/jSnPFMEmSXmgK8GXK9uDI3xQeQP0/0Eqajdzi3NzikYCwY7Xjt8zrR6+/m47fMqfc4u3uSqrVbsCiNdd8BPhJzTUrGQ+4xgJK7zE2khcJqDusjqfs2vlDdCM1awDvpsyR+iPwTswENId84UjSv9qA8g32G5RQKUoT+HpgfUltvOc36Znc4vSgwOMd0evvptzi5bnFSgGP66O5xdnR66/b2EieB/h0QOlDRpvpsYC6VR1G/btWFgF2r7nmsLsZeCPwRcpu8GHzGuAXwBXADpgNaJJ8wUhSsRTwQ+Bi4i5re64v4QluUu9qcRItEi0aNd/edNybBnj3QovtAh7TBi1O3/6MND16+QHeC6xUc82ZwI9qrjkpo830KCVQqtunxkZy3bOrht1M4DvAxpRQZRitAxyDoZImyReKpGG3OPA14Hrg48TuRnrWxcDB0U1Iam/7s9KducUFATto5sst3ha9/m74+WZ5idxis4DHNOUWv4xef5DPBdQ8abSZbg6oO1ljQN0znVagvJlX/S4FNqTsUnoyuJcozw2V3hXci/qAYZKkYbUG8D3gVuA/KNvLe8EMYFfq/wFW0iRl+GWGFHDbLnrt3ZBh2wzzBDyeF7737HRH9PrrNjaSt6DMjKnb9wNqTtpoM90EIXO09hkbySmgrsqlbt8BXgr8OriXSOsAJ1Bmh/bCbn31KMMkScNkGuX0jt9QTrP4DLBgaEcv9E3g8ugmJM1ebvHH3OKegJ00axyzad4wev2ddMymuZFbbBfwWDZyi19Erz9IxK6ki0eb6Y8BdefUvgE11wW2DKirf7oJ2Ap4D8N9EMprgb8ARwGrBPeiHmSYJGnQLUA5qeJnwD3Az4G3AL34W78LKWGSpD7wvnNTixYnBs34eU/0+juqxca0WCngcbyX1tCd5sTYSF4feFNA6X0Das6x0Wb6PfDXgNKfDaipFzqBskvnc8DDwb1Eej9wDeVn1AWCe1EPMUySNGjmoQxR/BzwO+BBykkVH6B3LmWbyCPA+xjO00SkvpVbnJhbtAJ202xx9OvyYtHr75TcYvuoXUnv+30axsuKI3Yl3QkcF1B3bu0bUHOzsZH8ioC6eqGnge8CLwL2o4wjGEbTKIfDXAVsHdyLeoRhkqR+Ng14ObAL8APgPEoocwHw38BmwHxh3U3OhxnurdRSX3r/+enB3OJ3ASHIfLnF26PX3wlHvSYvnWMGb7fyEA7eHhvJK1NOcavbfqPN1I+/MPk5cFdAXXcn9Zb7KQe1rAMcQTkFbhitApwKHA8sHdyLghkmSepl8wDLUk7XeCdlxtEYcBpwNfAY5eSzHwOjwBuA+UM6nTvfhqGd2SH1vdziuKBdNdsf+ar+H9SbW7wzt5gn4PE7a8c/pQej1x/g09R/cumTwEE11+yI0WaaDuwfUPrdYyN5tYC6mrXrgQ8BL6EEjTm0mzjvpvws/v7oRhRnnugGJPW1ZSnfUGdnYV74g+uilF1DC4z/+zRgIWAJYMnx20inGu1hpwFfjW5C0pz7wAXp4p9tlG+kXAZRp9UpJ+38pea6HfOzjXIjt9iemF9w/jygZqixkbwYsFtA6Z+NNtMDAXU75SDgy5SfVeoyhfJLtE/UWFPVXQvsAHydcvnXDtQf0kZbnDKce1tgT6AZ247qZpgkaW6sBfwkuok+dhHlUoNh3SotDYzc4ljg3wNKv5c+DpNyi9cDKwSUvm6ni9PFAXWj7UXMKaY/CKjZMaPNdN/YSD4S2LXm0h8eG8lf6/MgbtBdRZnL+RXKLLJdqDd07AXvBV5HCdTOD+5FNfIyN0mKcQNlgOET0Y1Imns5c3LOPJUzjZpvbz3i5blvd3HmzI4Bj1kjZ46JXnvdxkbyfMTscjljtJmuCqjbaRGB2AKUHR/qfTdTwtrVKOMLhm2XzgrAucAX6M0Tk9UFhkmSVL8bgU2Be4P7kNQhO1+SHiNzCplU820qmXdGr39OHLFhXo7MpgGP2ZNkTopef4APUi5Pr9v3A2p23GgzXQGcFVF6bCT34zzIYXU35bK3lYCPUS6HGxZTKEHayZQRFxpwhkmSVK9bgbcAt0c3IqmzcoujgwZxv//wDfpvEHdusX3Q4O2Td/5rejx6/XUaG8kNYO+A0tcAvw2o2y37BtRcCtgpoK7mzuOUwe3rANsAZ8e2U6ttgAuBF0c3ou4yTJKk+lwHvJZyEoikAfOhy9LVucWlAeHIGrnFxtHrn4yfrJen5BY7BIVvR0WvP8DbgLUD6u472kyDdNrV6cTsNNl7PBBU/2lRDlvZnHIC3P6U04gH3TrAnyk/92pA+ZeSJNXjYso3VHckSQMstzgqKCDZMXrtk5FbbJ5brBDwOF2yy9/SNdHrD/D5gJoPAj8LqNs148FYxOykFwPvCKirzrqacunbCsCnGPxL4JYAfge8J7oRdYdhkiR138nAJsB90Y1I6rIWp9HiIVo0ar5t/eOX5CWjl19Ziw8GPEYNWoMVblQxNpJfRczugINHm2kQD5k4gpjhyp8NqKnueIQSSq4NbEnZuTRIO/ieaz7gWODD0Y2o8+aJbkCSBty3KMeFz4xuZAjcAhwe3cRcuCy6Ac29D1+Vph+2dj6OcqpPneYDtqdcQtHTDls7r5hbbEb9J/48APyq5pq9YJ+AmjOAHwXU7brRZnp8bCQfQjkGvk6vHhvJrxttJo9eHxyZMlPst5RT4D5GCV369oTONhrAYZTvUwcE96IOMkySpO54GNiZsitJ9bgZ+FpwDxK57H75GPWHJTsdumY+YNdre3tGzfgleVMCSh+z67XpmYC6YcZG8ouB7QJKHz/aTHcE1K3LjygDzet+He8DGCYNppsou8/+HdgR+DiwXmhHnffsLzsMlAaEl7lJUuf9EdgAgyRpKO16bbolZ87LmUbNt9Vz5nXR65+VQ16c58mZDwQ8Nilnfhq9/gCfof5QE+D7ATVrM9pMtwEnBJTeZmwkRwxSV32eAA4B1qeMSDiestNvUOwPfCS6CXWGYZIkdc504MuUb/43x7YiKVJucXjQIO4PRa99VnKLt+YWywU8Lr/b7bo0VAcgjI3kpSDk9fCn0Wa6KKBu3fYNqJkoO6I0HH5PuXx5VeAbwL2h3XTOwZQTJtXnDJMkqTP+QPkt0rdwPpI09HKLM3OLOwNCk60PWi0vFb3+dnKLXYJCth9Hrz3AKDAtoO6+ATVrN9pMFwAXBJT+4NhIXjagruLcAXwVWAnYCej3sLZB2XH1yuhGNHcMkyRp7twF7ELZjTSMx01LmsAeN6WZZI4gk2q+TSXz/uj1T+SgVfOqZDYNeExuJXN29Prr9MMl8gKpwR6pQavm202pwYnR669LavD9gMd43tTg49FrV4jpwM+AjYDXAyfSv6fAzQ+cAiwX3YjmnGGSJM2ZxylbjteknCDWr9/MJXVJbvGz3GJmwC6cXQ5cOUfMyZml3GLn3GJKwONx+B43p1b0+uuUGnwoNRgJCDp+9IkH0iDNd5ml1OCXqcGtAY/zHj9aKi8UvX6FOh94J+Xn0IOAp2LbmSPLAidRTnlTHzJMkqTJeRz4b8r1618FHgvtRlLP+uit6d7c4rSA8GSN3GKT6PU/1wEr5qnjYVLdj8WMXE7XGxr7LZPnSQ0+GRBwPJoaw3U54cfvSzNSgx8FPNaLpEZvz0dTba4HPgqsDvw/ys+p/WQj4HvRTWjOGCZJUjV3AV+kXK/+BeD+2HYk9YPc4rCAAKWRW711Wk5usU1usUzA43DinrenB6LXX6vE20msTKJV8+2Ij92THopefu0Sh5F4LODxHt1v2TxP9PLVM+6iDGdfFfgu/bVT6WPAdtFNaPIMkySpvQycCbwbWAX4DtAM7UhSX9nrzvSH3OIfASHK2/dbtncGcecWuwaFaodEr71uqcGnAnbKzEwN9otee4SP3Z0eSg1+FvCYr5AavDN6/eo59wOfo+xUOhB4Jradyg6lXPamPmKYJEkvdDHwWcpvd94M/IL++WYsqddkDiHTqPk2H5mdopcOsN8yeQ0ymwU8Bld87O50YfT663TAivkNqcEGAcHGr/e6M10fvf4oqcF+44Fa3Y/7J6PXrp51F7AnsC5wWnAvVSxOCb/URwyTJAkeoZwo8VFgZcpRpd8Dbo1sStJgyC2Oyi2eDNiVs8ePlsrhP+vlFrsF7Uo6KHrtdUsNRgMCjVZq8MPotUfa8/Z0XWrw24DHfd0DV86bRq9fPe1aYBtgS+Dq4F5m5+3Ae6ObUHVeZytp2MwE/gFcClwE/B742/jHJanjPn5feuSHS+Rjgd1qLr0GsDnlct0QP1wiz5dbfJj6f4H5CHBMzTVDHbRqXofyfNd9ct1Ve9ycfl9zzZ6TGuwPvCmg9ChwbkBd9ZffAutT5n9+GZga205b/w84HXg0uhHNnmGSpGHwU8rRo9cD19FfQwklDYDc4kBgj4DSHyUwTMot3gVEzG762Wgz9dupRnMlNfg49QdJAPsH1Ow5qcG5wJXAOjWX3uTg1fO6u9+Yrqi5rvrPM8DXgeOBw4BXx7YzoeUppyV/LroRzV741mdJqsHGwBnA3zFIkhRgtJkuA/4cUHrbsZEcOdR096C6QzV745AX5eVSg+0CLrO6LzU4Pnr9vWD3G1NODQ4MuszwY9HrV1+5Gngd8BV6c2f+JyljJ9TjDJMkDYO1gB9ENyFp6EUEHPMAHw6oy9hIXgvYJKD0eaPNdFVA3TgNdqPBFBq0ar79eLfr0/To5feMBifQ4P6A52HbQ9bMK0QvX32lBXyT8nf0bcG9PN9Uyg4q9TjDJElz43LgjZO4fTamTQA+AmwfWF+SjgMeCKi769hIyCDujwbUhCG77OrQtfLCKfGBlGjVfHs6JX4Svf5estu16amUODzguWikVPtMNg2GP1JmKZ0R3cjz7ASsGd2EZs0wSdLceIgy9LHq7XuUN1NRDgZWCawvaYiNNtNTEPLmezVqHgw8NpKnATvXWXPc3cCJAXXDpAYfSA0WDLi06pe7/iPdF73+XpMa/CQ1mB7wfOx42Dp5kej1qy81ga2AA6IbeY6Ec5N6nmGSpLrtCdwZVHtR4Gg8fEBSnAOBHFC37uHf7wFGaq4JcMhoMz0TUDfEj1+a500NPhw0p+eQ6PX3oo9cne5NDU4MeD6mpQYfjF6/+tZMYC/KvKKIQf4T2QlYMboJtWeYJKluDwK7BNZ/DfAfgfUlDbHRZrqBmMsJ6h7EHTF4eyYMV8CRGmybGiwdEFz86cNXpiuj19+rUoNDgwK+XX7ysjxv9PrV18YoIU4vBErzEneIgyowTJIU4QzgR4H1vwS8IbC+pOEWcSlBbYO4x0bySygnBdXttNFm6rVBsl1z+Po5pQa7B4UWh0avv5ft8vd0RWpwYcDzskRq8M7o9avvHQV8kN4IlHajhErqQYZJkqJ8HvhHUO0G5XK3xYPqSxpupxFzek5dg7j3rKHGRPYLqhsiTWGTNIU10hRm1ny7OU3hd9Hr73VpCocGPDcz0xQ+fMSGOUWvX33vaGDX6CaAZYG3RzehiRkmSYryBPABYEZQ/RWAw4JqSxpio800k3IgQN26Poh7bCQvACFzW64HzgqoGybFzUr6yc5/Tb2wY6GnpQZnpQa3BTw/q6UGm0avXwPhJ8DXopsAdoxuQBMzTJIU6WLg64H130Hcb9AlDbdDgYhB0d3+O297ymEHdTtgtJkiBpuH+Nkr87opsVHAEfSPpMQvotffD3a6OLVS4oiA56iVUk/sKNFg+DqxJzFDOWku4kAHzYZhkqRo3wYuCKz//4B1A+tLGkKjzRR1hP02YyN5+S7ef8Sw1KeAwwPqhgnclXT8By9Kj0evv1+kBiekBo8GPE//duTGeb3o9WsgZMq8vWsDe5iKl7r1JMMkSdFmUE6NiPrhdBpwzPg/JalOEYO4pwAf6cYdj43k9YFXd+O+Z+PY0WZ6MKBuiCNfnVegwZto0Kr5NoMGR0avv5984ML0GA1+EfBctWiEnpyrwfI4sANxoykAtgmsrTYMkyT1guuAvQPrr0vZoSRJtRltpnOBqwNKd2sQ9x5duM8q9g+qGyI12Ck1IGC3y1kf+HO6I3r9/SY1ODI1mBnwfG121GvzytHr18C4FPhmYP03A/MF1tcEDJMk9YqDgdMD6++JW2gl1e/AgJorA1t28g7HRvKClEMV6nbJaDNdFFA3xNGvz4umBm8PusTtZ9Hr70c7/jHdnhqcHfB85dQI+X9Sg+vblF8AR1iImJ2vmgXDJEm9IlMuvbg/sIcfAysG1pc0fI6gnG5Zt07PNtoBWLjD91nFsO1Kek9qMDUgmLjy/X9Il0avv1+N706KCAC3PWaT7OBidcrTxF5JsGlgbU3AMElSL7mbuMskABYHjqTMFJGkrhttpoeBowNKb93hQdwf7eB9VdUEjg2oG+LYN+b5UoP3BoUSR0Wvv5+977x0SWpwdcDzNk9qsH30+jVQTgUuDKq9aVBdtWGYJKnX/JLYU3k2Ab4QWF/S8InYXdOxQdxjI/nlwCs6cV+TdMRoM0Xs6gqREm9LiUUDjpm/OyXOiF5/v0uJnwU8d62UePfPN8seMqJO+kpQ3VfiL3x7imGSpF70SeDmwPr/CbwmsL6kITLaTJcS85veTg3ijtpRGnEaXojj3pQbqcH7gnYlHfPes1PkKU4DITU4MzW4K+D5Wzg12Dp6/RooZwFXBNRdAFg7oK7aMEyS1IseAXYGWkH1pwBHAYsG1Zc0fCKCkbkexD02khcG3teZdibld6PNdG1A3RgN3kCDFQKOl3+MBidFL38QbH9WmkmDYwOewxYNdjjuzV05wVHDa7+gui8PqqsJ+JeKpF71e+B/A+uvSjlhTpLq8HPgwYC6czuI+32UU3bqFvVGJkRqsEPQrqSTtj8jPR69/kGRGpycGjwa8DwumxpsEr1+DZRjKQO56/aygJpqwzBJUi/7d+DywPrbAx8OrC9pSIw201PATwJKz+0g7r061kl1d1CGwA6FE7bK66UGLwkIIJ5JDY6LXv8gec9v0hPjgVJEMBixg1CD6yHgNwF11wyoqTYMkyT1sqeBDwLTA3sYA9YKrC9peBwI5JprTmEOdyeNjeSNgPU7204lh4w2h2eGT4o7we2sd5+e7o1e/6BJDY5PDaYHPJ9r/mLrHPH/qwbXyQE1/Zm8hxgmSep1fwe+FFh/QcpW3vkCe5A0BEab6XrgzIDSHxkbyXNyQk7E4O0ZwCEBdUP8ctu8cmrwqqAwyV1JXfCu09J9qcHvgp7THaLXr4ES8f1q9YCaasMwSVI/+D5wXmD9DYBvB9aXNDwiBnGvCGw1mT8wNpIXgZA3pieNNtOdAXVDpAbvTg1yQOhwyTtPSddFr39QpQY/DwqTXnniO/Kq0evXwLgduKHmmvMC89RcU20YJknqBy1gJ8opb1E+zSTfbEnSHDiV8gN63SZ7qdsHKcc0123/gJohTnpnHkkNNk8NZgbcfh69/kG23UnpxtTg4qDn9l3R69dAuTCg5rwBNTUBwyRJ/eJW4OPBPRwOLBvcg6QBNtpMM4k5SXKrsZG80iS+/qNd66S9a4BzA+qGSA22TQ0aAbtXbkwNLole/6BLDY4L2p206cnvzktEr18D47KAmu5M6hGGSZL6yc+AEwLrLwX8FEiBPUgafIdSZgPVqQF8pMoXjo3k1wDrdredCR042kx1DygPccr2ef7U4G1BYcMv337CcDzOkVKDS8eDu7qf30Zq8Pbo9WtgXBNQc05m/KkLDJMk9ZuPAncF1t8C2CewvqQBN9pMdwEnBZSuOoh7jk5/m0tPUHaHDocGW9Bgfhq0ar7dT4Nzopc/DLY9LmUanBDwHLdo8OZTdsgRl6lq8NwUUNMwqUcYJknqNw9Q8bfnXfQN4BXBPUgabBGzgWY7iHtsJC8GbF9LN//q6NFmejigbu1OfX+eMn6JW8SupFO2PTbVvStuaKUGf0gN7gt4nudPDd4SvX4NhNsCahom9QjDJEn96NfEnHj0rHmBY4GFA3uQNNjOJebygdntOvoQMH8NfTzf0AzeTg1emxosERAwPJEa/DZ6/cNkm6PTjNTg1KDg8G2nfSA7e0Zz62HqvyzbcRM9wjBJUr/6LHBtYP01gP0C60saYOOzgQ4MKD27QdwRl7hdONpMlwbUDRG4K+nMrY9Mj0Wvf9ikBmeMB3l1P98jqcFro9evgfB4zfXMMHqET4SkfvUE5WjqmYE9fBDYMbC+pMF2BOXvujq1HcQ9NpJfD6xTbzvAEO1KOn3nvF5KrJISrZpvM1Li1Oj1D6O3/TQ9nhJnBDznrZTY9vSds7s8NLceqbmer9keYZgkqZ/9Bfiv4B4OoOxSkqSOGm2mh4BjAkq3G8QdsSvpAeC4gLohUoNtgnYl/WmrI9J90esfVqnBr1KDGQHP+4qpwfrR61ffa0U3oBiGSZL63TcpoVKUhYGjKXOUJKnTogZxb/PcD4yN5CWA9wT08pPRZnoqoG7tfvORvEpqsG5QmHRa9PqH2Vt/ku5PDf4Y9NxvHb3+GiwKvAlYKLqRAWWmMKR84iX1uxmUy83qvhTkuTYifoeUpAE02kx/JSYwf/4upA8B89XcQ9TcqBgN3hZ0TPxVWx6Wbohe/tBr8Kug53+d3+yWV4tefgdNpfxc9jHgp5SDDJrAmcCSgX0NskVqrudOqB5hmCRpEFxLGcgd6XOU33pJUqdFnF655dhIXgVgbCQnYi5xO2O0ORwhx2/3yEukBhu5K2l4bXlIuik1uCLoNbBV9PrnUALWpvxS8UfAhcCj4//80fjH18IZO922YM31cs311IbHQUoaFAcC2wJbBtVPlN+ArQ84d0JSJx0L/D9gpMaaCdgV+CqwCbBmjbWfNTSDt1ODN1Me87p/434XcFnNNdVGanA6JRyp2yvO2DMv+eYD0v0BtSdjecquo42AV47/czK7YureQTMMFqb+TMEwqUcYJkkaFBn4MHAFsHhQD8sBP6HMGvEbnaSOGG2mp8ZG8k+Az9Rc+iNjI/k/idmVdCvwq4C6tTvzY3kBSmAXcenGr7fYL/n9qkekBn8DbgNWCCi/JXBkQN12FqEERs+GRhtTwqS5sdhc/nm90Nw+J3NiRkBNTcDL3CQNkruIedPzXG8DPhHcg6TBE3Gp23KUkP7dAbUPHm2mmQF1a5cSm6bEvAHHwj+UEn+KXr/+aYv9Uk6J3wS8Flop8ZqzPp6jBlRPpYRGHwOOAK4GHgLOAr4NbEdnQoulO3Af+lcrBdQciu8N/cCdSZIGzS+An1Guk4/yXeA84PLAHiQNkNFmun5sJJ9F/bPZxqj/tMpngENrrhnid6N5HmAzYnYlnbX5WHomoK5mITW4AHgH5QSyOs1L2SFX147ATYF3UXYdbUAJlLptxRpqDJs1Amq6M6lHuDNJ0iD6OOUSiShTKTNO6h5IKGmwRcwQqvsEN4BfjDbTPQF1a5cabJwaLBwwcPnp1ODc6PXrhTYfSzNSg98FDeJ+49mfynWFx5tTfl7biHqCJIBVaqozTNYJqGmY1CPcmSRpED0C7AScQ9wJHmsD+wK7BdWXNHhOBe4gZp5KnSIu6avdOXvnRHlDHXHJxvlv/F56PKCuKkhTOA94C/WFLM9agDKb6Pwaal1bQ43niwg+Bt16ATWnB9TUBNyZJGlQnQd8L7iHXYH3BPcgaUCMNtMM4JDoPrrsytFm+n10E3VIDV6aGiwdsPtkZmpwVvT61d4bv5eeSA3OD9qdtNm5++Q6fhF3dQ01nm/dgJqDrAG8vOaa9+AhNz3DMEnSIPsK8PfgHg7GbdWSOucQBnuL/1DsSgJIDd4UFBZcuul3e/4I+KGXGpydGswIeH0smRq8rIYl/oP6Q4EViDl9bFC9hHLqXp1uqbmeZsEwSdIge5oyiDtyO+xiwNHAlMAeJA2I0Wa6Ezg5uo8ueQz4aXQTdTjvi3llGqxKg1bA7ezo9Wv2Nvnv9CANLg16jWxWwxIfJeZSt1cH1BxUmwbUjNjRpjYMkyQNusuBrwb38BrgP4J7kDQ4IgZx1+HI0WZ6NLqJOqTEZkHHv9+wybfTzdHrVzUpcXbQ62Tl338pr1bDEi+pocbz1RGUDYu6TxcFuCKgptowTJI0DP4XiJ7B8WXg9cE9SBoM51AuERk0Q3GJ2x++kpccn5cUcYmbu5L6yBu+lW5LDa4Leq1sWsMSL66hxvO9JaDmIJofeHNA3ejxFXoOwyRJw6AF7EzZUh2lQbncbfHAHiQNgNFmysCB0X102B9Hm+lv0U3UITV4fWqQA8KBe1KDq6LXr8lJDc4NCpPWPv/f81JdXt4funz/E1kDapkJNei2oARKdbs8oKbaMEySNCxuBj4R3MOKwKHBPUgaDIcDT0Y30UGDeunev/jj1/KCqcHLg8KB81739eQpSH0mNbgmNbg74PWSU4M3dHl5lwKPd7nGRLYPqDlodgyoeQtwd0BdtWGYJGmYHAH8MriH7YA9gnuQ1OdGm+kh4JjoPjrkPuCE6CbqkBq8OjVoBAQDj6YGl0avX5P32q+lnBr8PiiAXP9PX88LdXF5M4Hzu3j/7bwPSAF1B8ViwLYBdf8UUFOzYJgkadjsAdwT3MO+wEuDe5DU/wZlN89ho80UeepmLf78jTxvarBRUCjwp9f8e3om+jHQnEkNLk0NHgl43TRSo+unn53R5fufyBo4iHtu7AxMC6j7x4CamgXDJEnD5n7gw8E9TKPsKIj4RixpQIw20yXARdF9zKUMHBTdRC0abEiDaQHHvD9Ngwujl6859+qvpJk0+FPAa6dFg1f8+Vt5aheX9+su3vesfDyobr9rAHsG1T4nqK7aMEySNIxOJ/7Ny8uA7wX3IKn/9fsJaL8abQ7+UfUXfCc3UoNXBe1K+uurv5SeiH4MNHdSg4tSg6cCXj/zpQYbdnFpV1PmWtbt7cCaAXX73TbAWgF1bwMPEOg1hkmShtXewPXBPexF+WFGkubUz4FmdBNzod/DsEpSYu2UWDQlWgE354wMgFd9IT2ZEn8Neg1tfOF/526+b4yYZ5mALwXU7WcJ+GJQ7d8G1dUsGCZJGlaPAx+gDH+MdBiwQnAPkvrUaDM9QTlcoB/dBPwmuok6pDJ4O2JX0lUbfz71c9io50gNLkgNZga8jhZODV7SxaUd38X7npUPQFfXNWjeDmwcVPv0oLqaBcMkScPsQuBbwT0sARwJTAnuQ1L/6tfdPQeNNlMruoluu+h7eeXUYJmgMOnP0etX52y0T3ooNbgy6LXUzRDhQsplTHWbgiMHqpqHuJ+ZH2dIfvHQbwyTJA27rwMXB/ewKfD54B4k9anRZroW+F10H5M0nbIzc+ClBhsHvfm/9ZV7pzui16/OGt+dFPF6Wuri7+dVu7SsTDmYJMKWxBxz328+BqwTVPs04Mmg2poFwyRJw24GZZtz9Depr0PXj9+VNLj2j25gko4bbab7o5votkt+kJdMDVYLevPvCW4D6BWfTnenBjcHvaY26uLSftzF+56d/YFFAuv3uhWB/wqsf2xgbc2CYZIkwT+AzwX3MAU4Glg0uA9J/ekU4M7oJiahXy/Nm5Q0hZenKcwMuN2fpoQfMqEuSVP4S9DraqW//igv1aVl/QPChsWvAOwbVLsfHAgsHFT7PpyX1LMMkySp2I/4kyJWpXzDlqRJGW2mGcAh0X1UdPloMw38CWOX7p8XSg3WDtpBctGGH085+jFQd2z48XRjanBf0GvrFV1c2sFdvO/Z2QV4X2D9XrU78LbA+kdQLotWDzJMkqQiAx8BHgzuYwfKDzSSNFkHE39CZRX9dkneHEmJDVKCgGPcH0+Jq6PXr+5KiUsCXlutlHjRZQfkbu1SOZayEyXKwcBLA+v3mnWB7wf3cGhwfc2CYZIk/dMdwJ7RTQA/BNaMbkJSfxltpjuBk6P7mI1HgaOim+i2yw7KU2nwUhq0Am6XbrBnmhH9GKjLGlxDg8cCXl/QYP0ureppYi+BXYjyd+iSgT30isWAE4EFAns4i3L5o3qUYZIk/avjgCODe1iQ8tu5+YL7kNR/en3XzxGjzfR4dBPdlhq8NDWYJ+ASpOmpwd+j16/u22CPNDM1uCzoUreXXH5I7tbPKAcAT3XpvqtYgzKDLjJEiTYv8HPgRcF9fDe4vmbDMEmSXugTwG3BPfwb8K3gHiT1n7OBa6ObmIWBH7z9t8NyIzVYN+hN/lXr75Yi34irRqnBFanB0wGvsympwUu6tKy7iZ2dBOV03eOAqcF9REjAQcCbg/v4O3BmcA+aDcMkSXqhh4CdKXOUIn0G2DK4B0l9ZLSZMr07yP+80Wa6KrqJbksNXpQaLBAUJl0evX7VZ72PpKdTg6uDXmvr/v0nuVvvJb8HPNOl+67qbcAJDN8OpTF6Y3bnt4j/OVyzYZgkSRM7h/ihgwA/BZaJbkJSXzkCeDK6iQn0+iV4HZEavCzozf0NL9slPRK9ftUrNfhbajAz4PU2LTV4cZeWdSvxu5MAtgF+Aywa3UgNEiVI+nh0I8CVlJ1h6nGGSZLU3pcp39AiLUUJlFJwH5L6xGgzPUiZd9FL7qEMcx1oV/4sr5gaLBYUJv0tev2q37o7p0dTgxuidid1cWn/BfTCfLXXA3+izFIaVFOBn1DGPPSCrwCt6CY0e4ZJktTeU8AHgOnBfbwZ+GxwD5L6S6/tAjpktJmiL1vpupRYN+i49rte+sF0b/T6FSMl/h70ulvkqiPzSl1a1j30zgDmlwB/Ad4a3UgXjFB2X+0c3ci4C+n9U0k1zjBJkmbtMuA/opsAvgm8PLoJSf1htJkuAi6J7mPcTHrjkpWuuurovAQNlgk4qr2FJ7gNtZd8IN1PgzuDXnsv7eLS/he4vYv3PxmLA6cD/83gnLa7IeX7xBujGxmXgVGcldQ3DJMkafa+C5wf3MO8wLHAQsF9SOofvbI76bTRZoo+IbPrUoOXBF1q9FBq9MwbbgVJ5WS3iNffUlcfm5fs0rIepxxG0ks+R9mltGF0I3OhQXlc/wSsFtzLcx1BeWzVJwyTJGn2ZgI7AY8G9/EiYL/gHiT1j2Mpp1NG65VQq2uuOS4vmBqsFPRm/sp1dkj+Jn/IrbNDuiM1aAa9Btfp4tKOB87q4v3PifUooccYsFhsK5O2DnA25cS8Xtph9SDwhegmNDmGSZJUzU3Ap6KboIRa749uQlLvG22mJyi/6Y10A3BmcA9dlxqsnRrkgDfxT6QGN0WvX70hNbg6KExa8R8n5G7unN6d3hjG/VxTKAOrr6fs8pk/tp3ZWhT4DmV8wyaxrUxob8qcLPWReaIbkKQ+8mPKMbHvCO7jQMqAwhuC++g1ywIfim5iCF1P/GWgau8A4JOB9fcfbQ72rplrf5mnAqsSc/rQP9Z8Z5oZUFc9aDxYXBeYFlB+Lbo3p+0m4IuUnUC9ZgnKLp99KDOeDiZ+J/tzLQTsCXye0msv+i1weHQTmjzDJEmanN2B1wBLB/awMHAU5bjagT8daRLWohxtq3odgWFSzxptpn+MjeSzgc0Cyj/FELxBSA3WoOz2rztMmkkJcyUA1nxnal13Ur6WEijVbZXrTspXvPgd6eku3f9+wLvozV01UH6h9b+UQ1uOAA4FLg/sZyXgo8Ae9G6IBNAEdo1uQnPGy9wkaXLuAz4S3QSwMfD16CYk9YWomUU/H22mB4Nq1+L6U/KU1GCNoEuLbnzxO9L06MdAvSU1uCE1mB7wekzjwWq3tIAPUGbr9LKFgY9TLie7HPgS8JKaai9CGYXwa8puri/R20ESwIfpnRP7NEmGSZI0eafRG8dcf56Y3QaS+svJwF0BdQd+8HYqQ7fnSQ1m1nybkRpcF71+9Z4XbZumpwY3BrwmZ6YGq95wWp7SxeXdTm/8Qq+q9YBvAlcCN1N2K+1E2UmdOnD/8wKvolxidwblF55HAVtSZjr1uv2Bk6Kb0JzzMjdJmjN7A5tDV38LNzsJOJLyw8r9gX1I6mGjzTRjbCQfTLn8oi6XjDbTQB/xfOPpOQGrEzMr6c7Vt0q9NpBYPSI1uIEyx6sTgcVkzAOsDF0dCn8S8P8oQ6/7ySqUIOzZMOxR4CrgGuAWSlB2D+Wyr+fPXJqfssNoWcrjuxrlUsaXUgKlfnQh/fcc6nkMkyRpzjwGfJAyKyZyl+dylDlB2wIDPeRW0lw5FPgK9f22ehh2JS0DLEBMmOSsJLW1+lbpiZt+k+8Alg8ov9pNv8k3r7ZlVwfvfw74N+CNXazRbQtTRhZsHN1IgLuB7YBuzddSTbzMTZLm3J+Bb0U3AWxNuT5fkiY02ky3A6fWVO4h4NiaasVpsBoNWgG3B1bbMj0UvXz1uAY3BL0+p9Fg2S6vbibwXsqlY+ovT1JORY649FodZpgkSXPn68Bfo5sAvgusH92EpJ5W126hI0ab6YmaaoW4+aw8khosGjDkuDV+CZM0S6u9OT2cGtwf9BpdtYYl3ge8lRJeqz+0gB0pl7hpABgmSdLceYbyjfGp4D7mA46hXHIhSRM5i3oujxqGS9xWCXqT/mhqcF/0+tUfUoObgl6nC99ydh6pYYnXAG+n/Cym3vcx4MToJtQ5hkmSNPeuoZysFm0dYN/oJiT1ptFmysABXS7zu9FmurbLNULdem5eIDVYMuhN+s2rbNbVWTQaIKtslu4bDyAjXqur1LTM3wPvJmZ2mar7InBgdBPqLMMkSeqMH1J+6x9tN8oPVZI0kcPp7k7Kwd+VlFg5JVoBt6dScs6IJiclbgl6vS5+23l5wZqWeQqwEwZKveqLwHeim1DnGSZJUmdk4EOUI12jHUI5OlaS/sVoMz0I/LxLd38n5U3dwLr9D3lqarB00E6P21baJPlmWZOSGtydGjwV9JpdqcalHgXsgoFSrzFIGmCGSZLUOXcAe0U3ASwGHE19R4BL6i/d2j108GgzzejSffeGBsvTgIATsmbQ4M7o5av/rPj61KLB7UEnuy11+x/z1BqX+1PKDiVnKMVrAXtikDTQDJMkqbOOpQzCjvZa4KvRTUjqPaPN9Bc6fwrlDMquyIF1x5/zlNRg2aAdHnet+NrkG2TNkdTgztTgmYDXbU4Nlq95uUcB76QcQa8Y04EdcEbSwDNMkqTO2wu4PboJSpj0+ugmJPWkTu9OOnm0mQZ658z45W2NoDDpjuj1q3+t8Oo0Y/xyt4jX7jJ3Xpjr3il9GrApcH/NdQX3UB7744P7UA0MkySp8x6izE+K1qBc7lbH8byS+ssxwMMdvL+BHrx910U5Be5Kun/5jVM3h6ZrCIzvTpoZ8PpNqcHSAUv+C/Aq4OqA2sPqUmAj4M/RjagehkmS1B2/A34Q3QSwInBodBOSestoMz1BOdmtE64BzunQffWk1GDx1GBedyWpXy33yvR0avBA1O6kuy/JKWDZNwAbAycF1B42h1FGLNwa3YjqY5gkSd3zBXrjN2LvBHaPbkJSz+nUPIsDR5spd+i+elJKLBN0vPojy748PR69fg2GlLgr6HU8T0osHrTsRyk/B30JmBnUwyB7HPggsCvOqRo6hkmS1D1PATtSBtNG2xd4SXQTknrHaDNdA5w7l3fzBHDE3HfTu+69LC+cGkwL2tFxV/T6NTiW2TA9nho8HPRajrjU7VkZ+DZljuTNgX0MmvOBDYAjg/tQEMMkSequS4F/j24CmJ9y0ty06EYk9ZS5nXV0zGgzPdSJRnpVmsJSaQozA25PLL1B6uRcK4k0hXuCXs9T7/t7Xjh4+X+mhB8DHYDX4Eng08AmwPXBvSiQYZIkdd//AH+KbgJ4GfDd6CYk9ZSTgLvn4s/v16E+etL9V+ZpqcGCQTs57o1evwbPUi9Lj6QGTwa9ppeMXj/l4IEPAW8BbottpS+dCryUsuO9FduKohkmSVL3zaRcT94Lcy8+Dmwb3YSk3jDaTM8Ah8zhH79wtJku7WQ/vSY1WCLoTff01KAZvX4NptTgvqDX9QIPXJ3nj17/uDMooch3gWeCe+kHNwJvp/wMeVNwL+oRhkmSVI8bgU9GNzHux8Dy0U1I6hmHMGeDaQ/odCO95IF/5HlpsDANWgG3B5ZYZ7CHmitQg4doMD3otR01iHsijwKfA9YDfh3cS6+6DxgF1gFOCe5FPcYwSZLqcxhle3C0JSjDEv0eIInRZroNOG2Sf+xB4OddaKdnpAaLpQY5YPfGDHclqZuWWCvl1ODBoN1JCz14XZ43+jF4nmuArYA3AhcG99IrHqDM/Fwd+CEwPbYd9SLfSEhSvXal/JYn2huBL0Q3IalnTHYQ949Hm+mprnTSA5rX50ZKLBJ0jPpDi784eYS5uiolmikxI+g1vlj0+ts4F3g1sDVlWPcwuhP4DLAq8F/AY6HdqKcZJklSve6lBEq94D+BV0U3IaknnAncUPFrM3BgF3sJlxoskhoQtHPjoej1a/CNvCi1UoOHo3YnPXRjTtGPQRsZ+BXwGmBTyqVdwzBo+vfAeykh0vcxRFIF80Q3IAHnADfXWO+vNdaqW91bc6+oud6gOAX4D2DD6EaA7YELunTf54NviobAIP+dOjRGmymPjeQDgP+t8OVnjDZT1eCpL6UGTzN3p9zNqZmLrpocBqxapAYPUo5518TOG7+tAuwJ7AwsG9pRZ90NHA0cDvw9thX1o5Szs/2qSqlXA3RJkqS5MzaSF6dc4jDfbL70HaPNdHINLUlSL5kCvJlyQu+2wIKx7cyR+yjzO48DzmLODl8IZ4bRGwyTJsEwSZIkDbKxkXw45bfv7dwGrDbadKaPpKE2DXgT8A7grfTuKbkZuBT4HSVE+hN9GiA9lxlGb/AyN0mSJD3rAGYdJh1kkCRJPEU5BfPZkzDXATYH3gBsDKwc1NcTlMvPL6QMET+Hcvqm1HHuTJoEdyZJkqRBNzaSLwU2mOBTzwArjTbTPfV2JEl9Z1nglcDawEspYdOqwNIduv/7gVuBG4ErgauBq8ZvAx/4m2H0BncmSZIk6bn2Bw6e4OO/NEiSpEruplxWdurzPj6NsmtpaWDx8dtiQAIWfc7XTafsMpoJNMdvDwIPUEKkp7rXulSNYZIkSZKe62jKqW6LPO/jBwT0IkmD5Cng2vGb1Nca0Q1IkiSpd4w20+PAEc/78JWjzXReRD+SJKn3GCZJkiTp+Q583n+7K0mSJP0fwyRJkiT9i9Fmugp4difSY8DPAtuRJEk9xjBJkiRJE9l//J9HjTbTI6GdSJKknmKYJEmSpImcCNzDP0MlSZIkAFLOObqHvpFSim5BkiSpNmMjeZ3RZro6ug9Jkp5lhtEbDJMmwTBJkiRJkqQ4Zhi9wcvcJEmSJEmSVJlhkiRJkiRJkiozTJIkSZIkSVJlhkmSJEmSJEmqzDBJkiRJkiRJlRkmSZIkSZIkqTLDJEmSJEmSJFVmmCRJkiRJkqTKDJMkSZIkSZJUmWGSJEmSJEmSKjNMkiRJkiRJUmWGSZIkSZIkSarMMEmSJEmSJEmVGSZJkiRJkiSpMsMkSZIkSZIkVWaYJEmSJEmSpMoMkyRJkiRJklSZYZIkSZIkSZIqM0ySJEmSJElSZYZJkiRJkiRJqswwSZIkSZIkSZUZJkmSJEmSJKkywyRJkiRJkiRVZpgkSZIkSZKkygyTJEmSJEmSVJlhkiRJkiRJkiozTJIkSZIkSVJlhkmSJEmSJEmqzDBJkiRJkiRJlRkmSZIkSZIkqTLDJEmSJEmSJFVmmCRJkiRJkqTKDJMkSZIkSZJUmWGSJEmSJEmSKjNMkiRJkiRJUmWGSZIkSZIkSarMMEmSJEmSJEmVGSZJkiRJkiSpMsMkSZIkSZIkVWaYJEmSJEmSpMoMkyRJkiRJklSZYZIkSZIkSZIqM0ySJEmSJElSZYZJkiRJkiRJqswwSZIkSZIkSZUZJkmSJEmSJKkywyRJkiRJkiRVZpgkSZIkSZKkygyTJEmSJEmSVJlhkiRJkiRJkiozTJIkSZIkSVJlhkmSJEmSJEmqzDBJkiRJkiRJlRkmSZIkSZIkqTLDJEmSJEmSJFVmmCRJkiRJkqTKDJMkSZIkSZJUmWGSJEmSJEmSKjNMkiRJkiRJUmWGSZIkSZIkSarMMEmSJEmSJEmVGSZJkiRJkiSpMsMkSZIkSZIkVWaYJEmSJEmSpMoMkyRJkiRpzvw7MCW6CYXZB59/DamUc47uoW+klKJbkCRJktQ7LgOuBD4ItGJb6TkLAOsDawFrAosAC1PCl0fGbzcDVwFXAA+GdDl3LgMuAnYHfGNdEzOM3jBPdAOSJEnSuM0pb8on8i3g2hp7eRXw0TafGwP++pz/HgU27HpHs+5hIu36OhQ4v+Mddd//AkvWUGcv4IlJfP37KcHIXsQHCu8H3jzBx08av3XbisCOwFuBVwNTJ/FnLwd+DZwC/Lnzrf2fXYHXTfDxo4Ez5vD+ngA+OTdNdUgn11bX32vfAa6poY46LefsreJNkiRJXbU8MIPyhvz5tx/U3MuJbfp4CFjweV97Upuv7ebtHRXW0K6vD1V6BHrPzdTz2C42iZ4ue86f+94cr6xz9mXiNX2ty3U3B35L2Z3Viefg78AngIW60OvhbWp+ag7u67Ln/Plvd6S7uXM4nVvbSW3uq9O3TSfbWHQu4K3cnJkkSZKkXnEncHKbz+1MuWymDssD27T53BHA4zX1of7yGeDr0U3UbCPgAuAsyo6oTs0FWZey++46yg7Bfrii5gvjN2koGCZJkiSpl+zX5uOLAtvX1MNHaD9U98CaelB/+irDESgsBOxPCZI27mKdZYEDgL9RLj3tdd8GPh7dhFQHwyRJkiT1knOAf7T53O411G9Q5o5M5Dzg6hp6UH/7NrBndBNd9FLgYsoaJ7sT6VHgYcrlrJOxDmXO11fmoGbdfkgJpKWB1g/bBSVJkjQ8MmX3z/cn+NyrgfUouxS6ZUtg5Taf27/Nxx+nvEGuYh5eOHMJyqyZRyveB8Azk/jaQfcYMLOD95c7cB/7U14XP+3AffWStwInUO2S06uB3wC/p5zWdjP/GiItSrmc7ZXj97sZs35/OgX4L8oJcTszuSHpdTsYeJIy+HrQPAlM7+D9TTZYVI8wTJIkSVKvOZxyetv8E3zuo5RTs7ql3e6neyhDuSey4yTuf1PK7qvn+zuwwSTuR//0esog5F7zE+Ap4LjoRjrkfZSZYfPO4mueofz/eyCzP23wYeCP47d9gSUoO3o+SZlb1s67x792a3o3UGpQHofHKKfTDZK9KGvTkPMyN0mSJPWah4Bj2nzuA0y8s6cTlqe8QZ3IIbgbSJPTAI4Eto1upAO2An7GrIOkE4AXUQLZ2QVJE3kA+B9gNeCLzDooeiNwKjB1DurUZV7KY7J5dCNSNxgmSZIkqRe1G8S9MLBDl2q2G7zdoly2Ik3WvMDPKZdw9at/o4Qi7YbSPwS8A3gPcGsH6k0HvkOZk/TnWXzdZuNf18vmpYRer4tuROo0wyRJkiT1or8Cf2nzuT26UG9Wg7dPBW7rQk0Nh2nAafTHaWTPtwglSJroklOAa4ANgZO7UPtWYBPKQOuJ3AD8qAt1O21+4Fd099Q7qXaGSZIkSepVB7T5+CuBl3e41qwGb7frQ6pqfuC3dP512237Aau3+dxlwBuAm7pY/xlglDJD7bmuocwfu7GLtTtpEUqg+LLoRqROMUySJElSrzoWaLb5XKd3J7UbvH0DcGaHa2k4LUI53axfAoXNKDPKJnIz5QS2+2rq5cvAD8b//QpKiHV7TbU7ZUngd5S5UlLfM0ySJElSr3oK+HGbz72PMj+pE1ai/eDtAykzk6TJaDesfUlKoNTrgUKD9peQPU2ZkXR3bd0Ue1MGdL+O+kKsOdXu+V8KOBdYpb5WpO4wTJIkSVIvOxDIE3x8IUqg1AntBm8/TTneXZqsvYA72nxueeAcYMX62pm07SkDsCfyBeDyGnt51kzg88DDAbUn6xPA/W0+twJlh1IvP//SbBkmSZIkqZddT/vLzPbqwP1PoYRJE/k55bhyabKuB95C+0BhRcoOlWXramiSvtDm43+j/UBs/dM/KJcJPtTm82tQdqgtVVdDUqcZJkmSJKnXtRuAvT6w0Vze91a03yHg4G3NjSuBLYBH2nx+DUpQ2muBwsaU/7cm8nnKDiHN3t8pg/3bPf8vBc4AFq2tI6mDDJMkSZLU606l/bDduR3E3W7w9uXABXN539JlwJuBx9t8fl3gdHorUGg3dPtyyol0qu5CynypJ9t8fgNKoLRgTf1IHWOYJEmSpF43Eziozed2oJySNSdWouxMmsj+c3if0vNdCGxL+0DhFcCvgQVq62jWtmvz8UOYeH6ZZu0cymPabij3RpTAvFeef6kSwyRJkiT1g0OZ+M3YAsBOc3ifH2Hin4cfBY6aw/uUJnI28B7aBwqvBk4D5quto4mtTRkQ/Xwt4LiaexkkvwXeTfuTId9ImdE2tbaOpLk0T3QDkiRJUgV3AydSTpl6vj1of4x5O7MavH0E7S9LUu/5OvBgh+7rpPFbN/yKcgLhcUwcYr4ROJ4SOkzvUg+z84Y2H78UuK/ORgbQKZTg+6dM/PxvDRwNvJfenku1K7Bph+7rr8BYh+5LNTNMkiRJUr84gInDpHWB1wB/msR9OXh7cGzTwfu6me6FSQC/oAQKR7b5/DaUsGFHYgKFddp8/A+1djG4jgIWAg5s8/l3UcLsD9K7lxS+dvzWCYthmNS3vMxNkiRJ/eJc4Oo2n2s3SLuddl9/HnDVJO9LmoyjgL1m8fn3Ui7rTPW08y/WavNx/5/onIOAT8/i8ztSZrZFPP9SZYZJkiRJ6iftBmNvDyxe8T5mNXjbXUmqwwHA52bx+Q8B+9XTyr9Yvs3Hb66ziSGwL/CVWXz+o8B/19OKNGcMkyRJktRPfsrE84zmp/og7t2Z+OfgeyhzmaQ6fBf42iw+vyfwnXpa+T+Ltvn4A7V2MRy+yawDo32Y9etDCuXMJEmSJPWTRyiXCU10mdrulN/4z8o8tB+8fShxg4815x6jc/OFnurQ/VT1n8CClOBgIp+nnC74zZr6WajNx7s1v+lgYOkO3de3gQs7dF91+QKwMO0ve/wPSnj+3do6mr0n6dzfkx500McMkyRJktRvDmDiMGkd4PXMeljw1sByE3y8RXljq/7zeuCy6CbmwucpgcJH23z+G8ATwPdr6OVxYMkJPj5vl+q9GVilQ/d1eIfup24fBxagXNo4kf+hBKa9cgnuXvTvY60O8jI3SZIk9ZvLaH9y2x6z+bPtBm+fBtw6pw1JcyFT3qC3O+EN4P8x+9d2JzzW5uMTBUzqjAzsChw7i6/ZH/hAPe1I1RgmSZIkqR+1+y39e2j/xncVYMtJ3p9Uh0zZmXLCLL5mf8pJX910X5uPr9nlup3Qz5eozgR2Bk6dxdccAbyrnnak2TNMkiRJUj86Hrh/go9Ppbwpm8iuTHzc9k3AGR3qS5pTMylh0WltPt+gDKB/exd7uLbNx9frYs1OeTS6gbk0nRKGn9Pm8w3gGMqlulI4wyRJkiT1o6eBH7f53O68MDSa1eDtAykzk6Ro04H3MutA4Xja77CbW1e1+fimXap3O3DLJG6zOlXu9i71WKenKWFRu8t45wWOAzarrSOpDcMkSZIk9auDKJcHPd+awCbP+1i7wdvTaR9KSRGeoLxe/9Lm8/MCvwTe2IXaf2zz8TUoA+477XXAqpO4faPN/cwAbutCfxGeALYCLmrz+fkpl8NtXFtH0gQMkyRJktSvbgR+3eZzzz9qu93g7eOY+HI5KdITlJPOLmvz+fmBk+h8oHAp8Eibz3V7XlMVq7X5+NWUQGlQPAy8DbiizecXoFyau0FdDUnPZ5gkSZKkftZucPY7gKXH/93B2+pHD1MCpXaBwiLAb4GXdbDmTNoPgd6NEmJFelWbj7fbUdXP7gO2AG5o8/lFgDOBdWvrSHoOwyRJkiT1s9Mps1Seb17K6Vgw8QwlgMtpP5tE6gX3AW+lfaCwKHA2sFYHa/6szceXBnbpYJ3JWh54ZZvPtZsx1e/upsyrancJ35LAb4AX1dWQ9CzDJEmSJPWzFmV20kR2p5zu1m7wtruS1A9uBzYH7mjz+SWB39G5QOEs4NY2n/sasFiH6kxWu9MYn6KEyoPqdsrA7TvbfH4FynO2Ym0dSRgmSZIkqf8dRhmk/XxrAD8Elpngc48CR3WzKamDbqHsULm3zedXoOxQ6USgMBP4bpvPLQX8TwdqTNaiwGibz50GPFZjLxGup1yq226+2yrAufzz0l6p6wyTJEmS1O/uBU5o87l2g7d/yuC/AdVguR54E+0DhTWAd3Wo1mG03wmzG/D2DtWp6pvAEm0+96M6Gwn0d+AttB+QvgblkkipFoZJkiRJGgSTvWTNS9zUj/5OOeWrXaDQKU8C+8zi8z+jvsHPbwM+1uZzlwDn1dRHL/grJVB6MroRyTBJkiRJg+B8yhvtKn4PXNnFXqRu+gslYOl2oHAM7QdbL0w9g5/XB46exednFXgNqguArTFQUjDDJEmSJA2KqruNDuxqF1L3nU8JFJ7pYo0M7AQ023x+BcqcnvW7VH99ymDpRdp8/pcM7ilus3M2sAPdff6lWTJMkiRJ0qA4kjJYe1buA35RQy9St50NvJvuBgq3AztTTk2cyArAnyjBRie9kxKYLdnm8/cAH+1wzX5zCrAj7Z8bqasMkyRJkjQoHqXMcpmVQ5n45DepH50CfIjuBgqnAp+execXoFwSdzxzf5rc4pTh378AFmrzNTOBD1CC4WF3PLBLdBMaToZJkiRJGiSzutQtAwfV1YhUk6MpJ6x10xjwn7P5mncD1wHfA1af5P2PAF8EbgA+PJuv3ZNy+ZuKnwJ7RTeh4TNPdAOSJElSB10B/AF4/QSf+xVwS73t9KT/Bb42h3921c610TGn09ndZuvR/dPSOu3HlB1CP+xija8BjwP/M4uvmQZ8hrKT6TzKrqY/AFeN/9lnJWAV4HWU2U9vH/+zs/NJ4JBJ9j0MDqDMlvpODbXm5u+PiexAGSquPmOYJEmSpEGzPxOHSVUHdA+6JcZvg2K5Dt9fv1698SPKpWHf7mKN71J2Hx1B+8HYUMKiTcdvUHYFNimXoiZgaaqFR896GtidsgtHE/tvYEHgq12u0+m/PybzOlAP6de/KCVJkqR2fgnc+7yP3UQ5ylwaZN+hu2ESwEnAK4A/TuLPJMo8pFWAlZlcgHA98GoMkqr4d8plhlLXGSZJkiRp0EynDNp+roPw1CMNhy9RZhx103WU3X97AQ90qcZ04JuUyw4v7VKNQbQPcGB0Exp8hkmSJEkaRAfzz/BoOmWmjDQsPkX3ZwtlyqWjq1KGZ9/Zoft9khKGvRj4yvh/q7oMfIwymF3qGmcmSZIkaRDdQhm4vQ3l+OxeOUb8fuDkCT5+UxdqXdiF+4x0BmXWTrc9M4mvPQe4eYKP39+ZVuZYppx6tiDw/i7Xeoxyed13gS2B9wFvBpaaxH08Dvye8v/qL+juAPS/AotN8PEb5uC+evX5bwE7AfMD283hfdT190f0Y6U5lHLO0T30jZRSdAuSJEmqbkvg15QToyYz30UaFFOAEykBytdqrJuAdSmXqK0NrAgsDMxHCeseAe4G/kE56e0SYEaN/Q2LqZTn/0xg39hWOscMozcYJk2CYZIkSVJfaQAnAO+MbkQKNJUywPq86EYUYgFKqHdBdCOdYobRGwyTJEmSJEmSVJkDuCVJkiRJklSZYZIkSZIkSZIqM0ySJEmSJElSZYZJkiRJkiRJqswwSZIkSZIkSZUZJkmSJEmSJKkywyRJkiRJkiRVZpgkSZIkSZKkygyTJEmSJEmSVJlhkiRJkiRJkiozTJIkSZIkSVJlhkmSJEmSJEmqzDBJkiRJkiRJlRkmSZIkSZIkqTLDJEmSJEmSJFVmmCRJkiRJkqTKDJMkSZIkSZJUmWGSJEmSJEmSKjNMkiRJkiRJUmWGSZIkSZIkSarMMEmSJEmSJEmVGSZJkiRJkiSpMsMkSZIkSZIkVWaYJEmSJEmSpMoMkyRJkiRJklSZYZIkSZIkSZIqM0ySJEmSJElSZYZJkiRJkiRJqswwSZIkSZIkSZUZJkmSJEmSJKkywyRJkiRJkiRVZpgkSZIkSZKkygyTJEmSJEmSVJlhkiRJkiRJkiozTJIkSZIkSVJlhkmSJEmSJEmqzDBJkiRJkiRJlRkmSZIkSZIkqTLDJEmSJEmSJFVmmCRJkiRJkqTKDJMkSZIkSZJUmWGSJEmSJEmSKjNMkiRJkiRJUmWGSZIkSZIkSarMMEmSJEmSJEmVGSZJkiRJkiSpMsMkSZIkSZIkVWaYJEmSJEmSpMoMkyRJkiRJklSZYZIkSZIkSZIqM0ySJEmSJElSZYZJkiRJkiRJqswwSZIkSZIkSZUZJkmSJEmSJKkywyRJkiRJkiRVZpgkSZIkSZKkygyTJEmSJEmSVJlhkiRJkiRJkiozTJIkSZIkSVJlhkmSJEmSJEmqzDBJkiRJkiRJlRkmSZIkSZIkqTLDJEmSJEmSJFVmmCRJkiRJkqTKDJMkSZIkSZJUmWGSJEmSJEmSKjNMkiRJkiRJUmWGSZIkSZIkSarMMEmSJEmSJEmVGSZJkiRJkiSpMsMkSZIkSZIkVWaYJEmSJEmSpMoMkyRJkiRJklSZYZIkSZIkSZIqM0ySJEmSJElSZYZJkiRJkiRJqswwSZIkSZIkSZUZJkmSJEmSJKkywyRJkiRJkiRVZpgkSZIkSZKkygyTJEmSJEmSVNn/B6im967dxqV4AAAAAElFTkSuQmCC;" vertex="1" parent="1">
                    <mxGeometry x="218.5" y="157" width="218" height="99.78" as="geometry"/>
                </mxCell>
            </root>
        </mxGraphModel>
    </diagram>
</mxfile>